<?xml version="1.0" encoding="UTF-8"?>
<svg width="1440px" height="1024px" viewBox="0 0 1440 1024" version="1.1" xmlns="http://www.w3.org/2000/svg" xmlns:xlink="http://www.w3.org/1999/xlink">
    <!-- Generator: Sketch 44.1 (41455) - http://www.bohemiancoding.com/sketch -->
    <title>Desktop HD Copy 6</title>
    <desc>Created with Sketch.</desc>
    <defs></defs>
    <g id="Water" stroke="none" stroke-width="1" fill="none" fill-rule="evenodd">
        <g id="Desktop-HD-Copy-6">
            <g id="noun_1056520_cc" transform="translate(550.000000, 217.000000)" fill-rule="nonzero" fill="#178491">
                <path d="M341.96204,0.330689655 C329.754062,0.330689655 329.754062,19.6684369 317.546084,19.6684369 C305.338106,19.6684369 305.338106,0.330689655 293.130128,0.330689655 C280.929742,0.330689655 280.929742,19.6684369 268.729356,19.6684369 C256.525175,19.6684369 256.525175,0.330689655 244.324789,0.330689655 C232.124403,0.330689655 232.124403,19.6684369 219.927813,19.6684369 C207.731223,19.6684369 207.731223,0.330689655 195.534633,0.330689655 C183.334247,0.330689655 183.334247,19.6684369 171.133861,19.6684369 C158.933476,19.6684369 158.933476,0.330689655 146.73309,0.330689655 C134.5365,0.330689655 134.5365,19.6684369 122.336114,19.6684369 C110.135728,19.6684369 110.135728,0.330689655 97.9353421,0.330689655 C85.7349562,0.330689655 85.7349562,19.6684369 73.5383663,19.6684369 C61.3417765,19.6684369 61.3417765,0.330689655 49.1451866,0.330689655 C36.9485967,0.330689655 36.9485967,19.6684369 24.7520068,19.6684369 C12.551621,19.6684369 12.551621,0.330689655 0.35503109,0.330689655 L0.35503109,48.6731419 L341.996204,48.6731419 L341.96204,0.330689655 Z" id="Shape"></path>
            </g>
            <path d="M650.561793,167.889838 L851.313069,131.970558 C887.300487,265.370879 893.217501,365.251488 869.064109,431.612385 C844.910718,497.973282 783.420267,566.083726 684.592757,635.943716 L537.534824,478.428884 L650.561793,167.889838 Z" id="Polygon" stroke="#979797" fill="#71AAEB" transform="translate(710.574722, 383.957137) rotate(70.000000) translate(-710.574722, -383.957137) "></path>
            <path d="M605.528474,331.056372 C731.84294,334.784311 823.101962,351.976244 879.30554,382.63217 C935.509117,413.288096 988.558374,479.367614 1038.45331,580.870723 L1030.92427,770.86691 C978.887599,847.625868 937.1121,896.250777 905.597772,916.741635 C858.32628,947.477922 733.52899,965.837964 688.114484,972.406336 C614.709812,983.02297 523.576618,924.827021 414.7149,797.818486 C494.20151,752.12401 550.545771,697.665308 583.747681,634.44238 C616.949591,571.219452 624.209855,470.090783 605.528474,331.056372 Z" id="Polygon" stroke="#979797" fill="#005BC4" transform="translate(726.584104, 652.345593) rotate(70.000000) translate(-726.584104, -652.345593) "></path>
            <g id="noun_717766_cc" transform="translate(380.000000, 26.000000)">
                <g id="Group" transform="translate(0.112709, 0.022213)" fill-rule="nonzero" fill="#168491">
                    <path d="M345.090154,0.40123315 C350.633268,1.19455527 355.732185,3.87356369 359.525539,7.98569014 C525.092069,187.806734 681.66254,400.945751 681.66254,603.36702 C681.66254,804.907279 530.029615,971.211971 341.291369,971.211971 C152.552175,971.211971 0.920197745,804.907279 0.920197745,603.36702 C0.920197745,400.945751 157.49169,187.806734 323.057199,7.98569014 C328.630237,1.87956241 336.931495,-0.977999489 345.090154,0.40123315 L345.090154,0.40123315 Z M341.291369,61.8365483 C186.234796,234.075562 49.5446508,433.6742 49.5446508,603.36702 C49.5446508,780.763222 181.121448,922.671446 341.291369,922.671446 C501.460317,922.671446 633.038087,780.763222 633.038087,603.36702 C633.038087,433.6742 496.348696,234.075562 341.291369,61.8365483 L341.291369,61.8365483 Z" id="Shape"></path>
                </g>
                <text id="63%-WASTE" font-family="AvenirNext-Regular, Avenir Next" font-size="48" font-weight="normal" fill="#FFFFFF">
                    <tspan x="206.116" y="697">63% WASTE</tspan>
                </text>
                <text id="37%-USED" font-family="AvenirNext-Regular, Avenir Next" font-size="48" font-weight="normal" fill="#FFFFFF">
                    <tspan x="224.216" y="372">37% USED</tspan>
                </text>
            </g>
        </g>
    </g>
</svg>