<?xml version="1.0" encoding="UTF-8"?>
<svg width="1440px" height="1024px" viewBox="0 0 1440 1024" version="1.1" xmlns="http://www.w3.org/2000/svg" xmlns:xlink="http://www.w3.org/1999/xlink">
    <!-- Generator: Sketch 44.1 (41455) - http://www.bohemiancoding.com/sketch -->
    <title>Desktop HD Copy 4</title>
    <desc>Created with Sketch.</desc>
    <defs></defs>
    <g id="Water" stroke="none" stroke-width="1" fill="none" fill-rule="evenodd">
        <g id="Desktop-HD-Copy-4">
            <rect id="Rectangle" fill="#4990E2" x="132" y="384" width="89" height="5"></rect>
            <rect id="Rectangle" fill="#4990E2" x="343" y="379" width="89" height="10"></rect>
            <rect id="Rectangle" fill="#4990E2" x="551" y="374" width="89" height="15"></rect>
            <rect id="Rectangle" fill="#4990E2" x="780" y="364" width="89" height="25"></rect>
            <rect id="Rectangle" fill="#4990E2" x="989" y="221" width="89" height="171"></rect>
            <rect id="Rectangle" fill="#4990E2" x="1198" y="374" width="89" height="18"></rect>
            <rect id="Rectangle" fill="#4990E2" x="132" y="778" width="89" height="52"></rect>
            <rect id="Rectangle" fill="#4990E2" x="132" y="778" width="89" height="52"></rect>
            <rect id="Rectangle" fill="#4990E2" x="29" y="978" width="63" height="18"></rect>
            <rect id="Rectangle" fill="#4990E2" x="343" y="752" width="89" height="78"></rect>
            <rect id="Rectangle" fill="#4990E2" x="551" y="733" width="89" height="97"></rect>
            <rect id="Rectangle" fill="#4990E2" x="780" y="718" width="89" height="112"></rect>
            <rect id="Rectangle" fill="#4990E2" x="989" y="670" width="89" height="164"></rect>
            <rect id="Rectangle" fill="#4990E2" x="1198" y="554" width="89" height="280"></rect>
            <polygon id="Triangle" fill="#4990E2" points="1184.79021 585.151318 1203.79254 587.398612 1202.37325 610.480954"></polygon>
            <g id="noun_869020_cc" transform="translate(110.000000, 109.000000)" fill-rule="nonzero" fill="#000000">
                <path d="M112.896552,289.027264 C110.282816,289.027264 108.14426,286.554712 108.14426,283.487315 L108.14426,11.3821487 L15.0683394,11.3821487 L25.0690614,25.3533186 C25.7737906,26.3475664 26.1627076,27.602023 26.1627076,28.9007947 L26.1627076,283.490156 C26.1627076,286.554712 24.0475451,289.030104 21.4133394,289.030104 C18.7996029,289.030104 16.6610469,286.557552 16.6610469,283.490156 L16.6610469,30.900085 L1.28176895,9.3936531 C0.092599278,7.73979292 -0.145722022,5.44677345 0.632111913,3.49861593 C1.41287004,1.55045841 3.08355596,0.309637168 4.93749097,0.309637168 L112.890704,0.309637168 C115.521498,0.309637168 117.639585,2.78503009 117.639585,5.84617699 L117.639585,283.490724 C117.645433,286.554712 115.527347,289.027264 112.896552,289.027264 Z" id="Shape"></path>
                <path d="M130.204332,320.730133 L4.94333935,320.730133 C2.30620939,320.730133 0.188122744,318.25474 0.188122744,315.193593 L0.188122744,283.486747 C0.188122744,280.429577 2.3032852,277.950775 4.94333935,277.950775 L130.204332,277.950775 C132.838538,277.950775 134.9537,280.426168 134.9537,283.486747 L134.9537,315.193593 C134.954188,318.25474 132.839025,320.730133 130.204332,320.730133 Z M9.68978339,309.66103 L125.455451,309.66103 L125.455451,289.027264 L9.68978339,289.027264 L9.68978339,309.66103 Z" id="Shape"></path>
                <path d="M53.5306679,255.744961 L33.3469495,255.744961 C30.7127437,255.744961 28.5951444,253.272409 28.5951444,250.208421 L28.5951444,39.1318885 C28.5951444,36.0713097 30.7098195,33.5953487 33.3469495,33.5953487 L53.5306679,33.5953487 C56.1444043,33.5953487 58.2800361,36.0707416 58.2800361,39.1318885 C58.2800361,42.1930354 56.1473285,44.6718372 53.5306679,44.6718372 L38.0963177,44.6718372 L38.0963177,244.674722 L53.5306679,244.674722 C56.1444043,244.674722 58.2800361,247.150115 58.2800361,250.211262 C58.2800361,253.272409 56.1473285,255.744961 53.5306679,255.744961 Z" id="Shape"></path>
                <path d="M57.0879422,221.012193 L33.3445126,221.012193 C30.7103069,221.012193 28.5951444,218.5368 28.5951444,215.475653 C28.5951444,212.414506 30.7103069,209.939113 33.3445126,209.939113 L57.0908664,209.939113 C59.7046029,209.939113 61.8402347,212.411665 61.8402347,215.475653 C61.8373105,218.536232 59.7046029,221.012193 57.0879422,221.012193 Z" id="Shape"></path>
                <path d="M57.0879422,183.552913 L33.3445126,183.552913 C30.7103069,183.552913 28.5951444,181.076952 28.5951444,178.016373 C28.5951444,174.955795 30.7103069,172.479834 33.3445126,172.479834 L57.0908664,172.479834 C59.7046029,172.479834 61.8402347,174.955227 61.8402347,178.016373 C61.8402347,181.07752 59.7046029,183.552913 57.0879422,183.552913 Z" id="Shape"></path>
                <path d="M57.0879422,144.669871 L33.3445126,144.669871 C30.7103069,144.669871 28.5951444,142.194478 28.5951444,139.133331 C28.5951444,136.072184 30.7103069,133.596791 33.3445126,133.596791 L57.0908664,133.596791 C59.7046029,133.596791 61.8402347,136.072184 61.8402347,139.133331 C61.8402347,142.194478 59.7046029,144.669871 57.0879422,144.669871 Z" id="Shape"></path>
                <path d="M57.0879422,106.949814 L33.3445126,106.949814 C30.7103069,106.949814 28.5951444,104.474421 28.5951444,101.413274 C28.5951444,98.3521274 30.7103069,95.8767345 33.3445126,95.8767345 L57.0908664,95.8767345 C59.7046029,95.8767345 61.8402347,98.3521274 61.8402347,101.413274 C61.8402347,104.474421 59.7046029,106.949814 57.0879422,106.949814 Z" id="Shape"></path>
                <path d="M57.0879422,74.6038088 L33.3445126,74.6038088 C30.7103069,74.6038088 28.5951444,72.1284159 28.5951444,69.067269 C28.5951444,66.0066903 30.7103069,63.5307292 33.3445126,63.5307292 L57.0908664,63.5307292 C59.7046029,63.5307292 61.8402347,66.0061221 61.8402347,69.067269 C61.8402347,72.1284159 59.7046029,74.6038088 57.0879422,74.6038088 Z" id="Shape"></path>
            </g>
            <g id="noun_869020_cc" transform="translate(319.000000, 109.000000)" fill-rule="nonzero" fill="#000000">
                <path d="M112.896552,289.027264 C110.282816,289.027264 108.14426,286.554712 108.14426,283.487315 L108.14426,11.3821487 L15.0683394,11.3821487 L25.0690614,25.3533186 C25.7737906,26.3475664 26.1627076,27.602023 26.1627076,28.9007947 L26.1627076,283.490156 C26.1627076,286.554712 24.0475451,289.030104 21.4133394,289.030104 C18.7996029,289.030104 16.6610469,286.557552 16.6610469,283.490156 L16.6610469,30.900085 L1.28176895,9.3936531 C0.092599278,7.73979292 -0.145722022,5.44677345 0.632111913,3.49861593 C1.41287004,1.55045841 3.08355596,0.309637168 4.93749097,0.309637168 L112.890704,0.309637168 C115.521498,0.309637168 117.639585,2.78503009 117.639585,5.84617699 L117.639585,283.490724 C117.645433,286.554712 115.527347,289.027264 112.896552,289.027264 Z" id="Shape"></path>
                <path d="M130.204332,320.730133 L4.94333935,320.730133 C2.30620939,320.730133 0.188122744,318.25474 0.188122744,315.193593 L0.188122744,283.486747 C0.188122744,280.429577 2.3032852,277.950775 4.94333935,277.950775 L130.204332,277.950775 C132.838538,277.950775 134.9537,280.426168 134.9537,283.486747 L134.9537,315.193593 C134.954188,318.25474 132.839025,320.730133 130.204332,320.730133 Z M9.68978339,309.66103 L125.455451,309.66103 L125.455451,289.027264 L9.68978339,289.027264 L9.68978339,309.66103 Z" id="Shape"></path>
                <path d="M53.5306679,255.744961 L33.3469495,255.744961 C30.7127437,255.744961 28.5951444,253.272409 28.5951444,250.208421 L28.5951444,39.1318885 C28.5951444,36.0713097 30.7098195,33.5953487 33.3469495,33.5953487 L53.5306679,33.5953487 C56.1444043,33.5953487 58.2800361,36.0707416 58.2800361,39.1318885 C58.2800361,42.1930354 56.1473285,44.6718372 53.5306679,44.6718372 L38.0963177,44.6718372 L38.0963177,244.674722 L53.5306679,244.674722 C56.1444043,244.674722 58.2800361,247.150115 58.2800361,250.211262 C58.2800361,253.272409 56.1473285,255.744961 53.5306679,255.744961 Z" id="Shape"></path>
                <path d="M57.0879422,221.012193 L33.3445126,221.012193 C30.7103069,221.012193 28.5951444,218.5368 28.5951444,215.475653 C28.5951444,212.414506 30.7103069,209.939113 33.3445126,209.939113 L57.0908664,209.939113 C59.7046029,209.939113 61.8402347,212.411665 61.8402347,215.475653 C61.8373105,218.536232 59.7046029,221.012193 57.0879422,221.012193 Z" id="Shape"></path>
                <path d="M57.0879422,183.552913 L33.3445126,183.552913 C30.7103069,183.552913 28.5951444,181.076952 28.5951444,178.016373 C28.5951444,174.955795 30.7103069,172.479834 33.3445126,172.479834 L57.0908664,172.479834 C59.7046029,172.479834 61.8402347,174.955227 61.8402347,178.016373 C61.8402347,181.07752 59.7046029,183.552913 57.0879422,183.552913 Z" id="Shape"></path>
                <path d="M57.0879422,144.669871 L33.3445126,144.669871 C30.7103069,144.669871 28.5951444,142.194478 28.5951444,139.133331 C28.5951444,136.072184 30.7103069,133.596791 33.3445126,133.596791 L57.0908664,133.596791 C59.7046029,133.596791 61.8402347,136.072184 61.8402347,139.133331 C61.8402347,142.194478 59.7046029,144.669871 57.0879422,144.669871 Z" id="Shape"></path>
                <path d="M57.0879422,106.949814 L33.3445126,106.949814 C30.7103069,106.949814 28.5951444,104.474421 28.5951444,101.413274 C28.5951444,98.3521274 30.7103069,95.8767345 33.3445126,95.8767345 L57.0908664,95.8767345 C59.7046029,95.8767345 61.8402347,98.3521274 61.8402347,101.413274 C61.8402347,104.474421 59.7046029,106.949814 57.0879422,106.949814 Z" id="Shape"></path>
                <path d="M57.0879422,74.6038088 L33.3445126,74.6038088 C30.7103069,74.6038088 28.5951444,72.1284159 28.5951444,69.067269 C28.5951444,66.0066903 30.7103069,63.5307292 33.3445126,63.5307292 L57.0908664,63.5307292 C59.7046029,63.5307292 61.8402347,66.0061221 61.8402347,69.067269 C61.8402347,72.1284159 59.7046029,74.6038088 57.0879422,74.6038088 Z" id="Shape"></path>
            </g>
            <g id="noun_869020_cc" transform="translate(528.000000, 109.000000)" fill-rule="nonzero" fill="#000000">
                <path d="M112.896552,289.027264 C110.282816,289.027264 108.14426,286.554712 108.14426,283.487315 L108.14426,11.3821487 L15.0683394,11.3821487 L25.0690614,25.3533186 C25.7737906,26.3475664 26.1627076,27.602023 26.1627076,28.9007947 L26.1627076,283.490156 C26.1627076,286.554712 24.0475451,289.030104 21.4133394,289.030104 C18.7996029,289.030104 16.6610469,286.557552 16.6610469,283.490156 L16.6610469,30.900085 L1.28176895,9.3936531 C0.092599278,7.73979292 -0.145722022,5.44677345 0.632111913,3.49861593 C1.41287004,1.55045841 3.08355596,0.309637168 4.93749097,0.309637168 L112.890704,0.309637168 C115.521498,0.309637168 117.639585,2.78503009 117.639585,5.84617699 L117.639585,283.490724 C117.645433,286.554712 115.527347,289.027264 112.896552,289.027264 Z" id="Shape"></path>
                <path d="M130.204332,320.730133 L4.94333935,320.730133 C2.30620939,320.730133 0.188122744,318.25474 0.188122744,315.193593 L0.188122744,283.486747 C0.188122744,280.429577 2.3032852,277.950775 4.94333935,277.950775 L130.204332,277.950775 C132.838538,277.950775 134.9537,280.426168 134.9537,283.486747 L134.9537,315.193593 C134.954188,318.25474 132.839025,320.730133 130.204332,320.730133 Z M9.68978339,309.66103 L125.455451,309.66103 L125.455451,289.027264 L9.68978339,289.027264 L9.68978339,309.66103 Z" id="Shape"></path>
                <path d="M53.5306679,255.744961 L33.3469495,255.744961 C30.7127437,255.744961 28.5951444,253.272409 28.5951444,250.208421 L28.5951444,39.1318885 C28.5951444,36.0713097 30.7098195,33.5953487 33.3469495,33.5953487 L53.5306679,33.5953487 C56.1444043,33.5953487 58.2800361,36.0707416 58.2800361,39.1318885 C58.2800361,42.1930354 56.1473285,44.6718372 53.5306679,44.6718372 L38.0963177,44.6718372 L38.0963177,244.674722 L53.5306679,244.674722 C56.1444043,244.674722 58.2800361,247.150115 58.2800361,250.211262 C58.2800361,253.272409 56.1473285,255.744961 53.5306679,255.744961 Z" id="Shape"></path>
                <path d="M57.0879422,221.012193 L33.3445126,221.012193 C30.7103069,221.012193 28.5951444,218.5368 28.5951444,215.475653 C28.5951444,212.414506 30.7103069,209.939113 33.3445126,209.939113 L57.0908664,209.939113 C59.7046029,209.939113 61.8402347,212.411665 61.8402347,215.475653 C61.8373105,218.536232 59.7046029,221.012193 57.0879422,221.012193 Z" id="Shape"></path>
                <path d="M57.0879422,183.552913 L33.3445126,183.552913 C30.7103069,183.552913 28.5951444,181.076952 28.5951444,178.016373 C28.5951444,174.955795 30.7103069,172.479834 33.3445126,172.479834 L57.0908664,172.479834 C59.7046029,172.479834 61.8402347,174.955227 61.8402347,178.016373 C61.8402347,181.07752 59.7046029,183.552913 57.0879422,183.552913 Z" id="Shape"></path>
                <path d="M57.0879422,144.669871 L33.3445126,144.669871 C30.7103069,144.669871 28.5951444,142.194478 28.5951444,139.133331 C28.5951444,136.072184 30.7103069,133.596791 33.3445126,133.596791 L57.0908664,133.596791 C59.7046029,133.596791 61.8402347,136.072184 61.8402347,139.133331 C61.8402347,142.194478 59.7046029,144.669871 57.0879422,144.669871 Z" id="Shape"></path>
                <path d="M57.0879422,106.949814 L33.3445126,106.949814 C30.7103069,106.949814 28.5951444,104.474421 28.5951444,101.413274 C28.5951444,98.3521274 30.7103069,95.8767345 33.3445126,95.8767345 L57.0908664,95.8767345 C59.7046029,95.8767345 61.8402347,98.3521274 61.8402347,101.413274 C61.8402347,104.474421 59.7046029,106.949814 57.0879422,106.949814 Z" id="Shape"></path>
                <path d="M57.0879422,74.6038088 L33.3445126,74.6038088 C30.7103069,74.6038088 28.5951444,72.1284159 28.5951444,69.067269 C28.5951444,66.0066903 30.7103069,63.5307292 33.3445126,63.5307292 L57.0908664,63.5307292 C59.7046029,63.5307292 61.8402347,66.0061221 61.8402347,69.067269 C61.8402347,72.1284159 59.7046029,74.6038088 57.0879422,74.6038088 Z" id="Shape"></path>
            </g>
            <g id="noun_869020_cc" transform="translate(757.000000, 109.000000)" fill-rule="nonzero" fill="#000000">
                <path d="M112.896552,289.027264 C110.282816,289.027264 108.14426,286.554712 108.14426,283.487315 L108.14426,11.3821487 L15.0683394,11.3821487 L25.0690614,25.3533186 C25.7737906,26.3475664 26.1627076,27.602023 26.1627076,28.9007947 L26.1627076,283.490156 C26.1627076,286.554712 24.0475451,289.030104 21.4133394,289.030104 C18.7996029,289.030104 16.6610469,286.557552 16.6610469,283.490156 L16.6610469,30.900085 L1.28176895,9.3936531 C0.092599278,7.73979292 -0.145722022,5.44677345 0.632111913,3.49861593 C1.41287004,1.55045841 3.08355596,0.309637168 4.93749097,0.309637168 L112.890704,0.309637168 C115.521498,0.309637168 117.639585,2.78503009 117.639585,5.84617699 L117.639585,283.490724 C117.645433,286.554712 115.527347,289.027264 112.896552,289.027264 Z" id="Shape"></path>
                <path d="M130.204332,320.730133 L4.94333935,320.730133 C2.30620939,320.730133 0.188122744,318.25474 0.188122744,315.193593 L0.188122744,283.486747 C0.188122744,280.429577 2.3032852,277.950775 4.94333935,277.950775 L130.204332,277.950775 C132.838538,277.950775 134.9537,280.426168 134.9537,283.486747 L134.9537,315.193593 C134.954188,318.25474 132.839025,320.730133 130.204332,320.730133 Z M9.68978339,309.66103 L125.455451,309.66103 L125.455451,289.027264 L9.68978339,289.027264 L9.68978339,309.66103 Z" id="Shape"></path>
                <path d="M53.5306679,255.744961 L33.3469495,255.744961 C30.7127437,255.744961 28.5951444,253.272409 28.5951444,250.208421 L28.5951444,39.1318885 C28.5951444,36.0713097 30.7098195,33.5953487 33.3469495,33.5953487 L53.5306679,33.5953487 C56.1444043,33.5953487 58.2800361,36.0707416 58.2800361,39.1318885 C58.2800361,42.1930354 56.1473285,44.6718372 53.5306679,44.6718372 L38.0963177,44.6718372 L38.0963177,244.674722 L53.5306679,244.674722 C56.1444043,244.674722 58.2800361,247.150115 58.2800361,250.211262 C58.2800361,253.272409 56.1473285,255.744961 53.5306679,255.744961 Z" id="Shape"></path>
                <path d="M57.0879422,221.012193 L33.3445126,221.012193 C30.7103069,221.012193 28.5951444,218.5368 28.5951444,215.475653 C28.5951444,212.414506 30.7103069,209.939113 33.3445126,209.939113 L57.0908664,209.939113 C59.7046029,209.939113 61.8402347,212.411665 61.8402347,215.475653 C61.8373105,218.536232 59.7046029,221.012193 57.0879422,221.012193 Z" id="Shape"></path>
                <path d="M57.0879422,183.552913 L33.3445126,183.552913 C30.7103069,183.552913 28.5951444,181.076952 28.5951444,178.016373 C28.5951444,174.955795 30.7103069,172.479834 33.3445126,172.479834 L57.0908664,172.479834 C59.7046029,172.479834 61.8402347,174.955227 61.8402347,178.016373 C61.8402347,181.07752 59.7046029,183.552913 57.0879422,183.552913 Z" id="Shape"></path>
                <path d="M57.0879422,144.669871 L33.3445126,144.669871 C30.7103069,144.669871 28.5951444,142.194478 28.5951444,139.133331 C28.5951444,136.072184 30.7103069,133.596791 33.3445126,133.596791 L57.0908664,133.596791 C59.7046029,133.596791 61.8402347,136.072184 61.8402347,139.133331 C61.8402347,142.194478 59.7046029,144.669871 57.0879422,144.669871 Z" id="Shape"></path>
                <path d="M57.0879422,106.949814 L33.3445126,106.949814 C30.7103069,106.949814 28.5951444,104.474421 28.5951444,101.413274 C28.5951444,98.3521274 30.7103069,95.8767345 33.3445126,95.8767345 L57.0908664,95.8767345 C59.7046029,95.8767345 61.8402347,98.3521274 61.8402347,101.413274 C61.8402347,104.474421 59.7046029,106.949814 57.0879422,106.949814 Z" id="Shape"></path>
                <path d="M57.0879422,74.6038088 L33.3445126,74.6038088 C30.7103069,74.6038088 28.5951444,72.1284159 28.5951444,69.067269 C28.5951444,66.0066903 30.7103069,63.5307292 33.3445126,63.5307292 L57.0908664,63.5307292 C59.7046029,63.5307292 61.8402347,66.0061221 61.8402347,69.067269 C61.8402347,72.1284159 59.7046029,74.6038088 57.0879422,74.6038088 Z" id="Shape"></path>
            </g>
            <g id="noun_869020_cc" transform="translate(966.000000, 109.000000)" fill-rule="nonzero" fill="#000000">
                <path d="M112.896552,289.027264 C110.282816,289.027264 108.14426,286.554712 108.14426,283.487315 L108.14426,11.3821487 L15.0683394,11.3821487 L25.0690614,25.3533186 C25.7737906,26.3475664 26.1627076,27.602023 26.1627076,28.9007947 L26.1627076,283.490156 C26.1627076,286.554712 24.0475451,289.030104 21.4133394,289.030104 C18.7996029,289.030104 16.6610469,286.557552 16.6610469,283.490156 L16.6610469,30.900085 L1.28176895,9.3936531 C0.092599278,7.73979292 -0.145722022,5.44677345 0.632111913,3.49861593 C1.41287004,1.55045841 3.08355596,0.309637168 4.93749097,0.309637168 L112.890704,0.309637168 C115.521498,0.309637168 117.639585,2.78503009 117.639585,5.84617699 L117.639585,283.490724 C117.645433,286.554712 115.527347,289.027264 112.896552,289.027264 Z" id="Shape"></path>
                <path d="M130.204332,320.730133 L4.94333935,320.730133 C2.30620939,320.730133 0.188122744,318.25474 0.188122744,315.193593 L0.188122744,283.486747 C0.188122744,280.429577 2.3032852,277.950775 4.94333935,277.950775 L130.204332,277.950775 C132.838538,277.950775 134.9537,280.426168 134.9537,283.486747 L134.9537,315.193593 C134.954188,318.25474 132.839025,320.730133 130.204332,320.730133 Z M9.68978339,309.66103 L125.455451,309.66103 L125.455451,289.027264 L9.68978339,289.027264 L9.68978339,309.66103 Z" id="Shape"></path>
                <path d="M53.5306679,255.744961 L33.3469495,255.744961 C30.7127437,255.744961 28.5951444,253.272409 28.5951444,250.208421 L28.5951444,39.1318885 C28.5951444,36.0713097 30.7098195,33.5953487 33.3469495,33.5953487 L53.5306679,33.5953487 C56.1444043,33.5953487 58.2800361,36.0707416 58.2800361,39.1318885 C58.2800361,42.1930354 56.1473285,44.6718372 53.5306679,44.6718372 L38.0963177,44.6718372 L38.0963177,244.674722 L53.5306679,244.674722 C56.1444043,244.674722 58.2800361,247.150115 58.2800361,250.211262 C58.2800361,253.272409 56.1473285,255.744961 53.5306679,255.744961 Z" id="Shape"></path>
                <path d="M57.0879422,221.012193 L33.3445126,221.012193 C30.7103069,221.012193 28.5951444,218.5368 28.5951444,215.475653 C28.5951444,212.414506 30.7103069,209.939113 33.3445126,209.939113 L57.0908664,209.939113 C59.7046029,209.939113 61.8402347,212.411665 61.8402347,215.475653 C61.8373105,218.536232 59.7046029,221.012193 57.0879422,221.012193 Z" id="Shape"></path>
                <path d="M57.0879422,183.552913 L33.3445126,183.552913 C30.7103069,183.552913 28.5951444,181.076952 28.5951444,178.016373 C28.5951444,174.955795 30.7103069,172.479834 33.3445126,172.479834 L57.0908664,172.479834 C59.7046029,172.479834 61.8402347,174.955227 61.8402347,178.016373 C61.8402347,181.07752 59.7046029,183.552913 57.0879422,183.552913 Z" id="Shape"></path>
                <path d="M57.0879422,144.669871 L33.3445126,144.669871 C30.7103069,144.669871 28.5951444,142.194478 28.5951444,139.133331 C28.5951444,136.072184 30.7103069,133.596791 33.3445126,133.596791 L57.0908664,133.596791 C59.7046029,133.596791 61.8402347,136.072184 61.8402347,139.133331 C61.8402347,142.194478 59.7046029,144.669871 57.0879422,144.669871 Z" id="Shape"></path>
                <path d="M57.0879422,106.949814 L33.3445126,106.949814 C30.7103069,106.949814 28.5951444,104.474421 28.5951444,101.413274 C28.5951444,98.3521274 30.7103069,95.8767345 33.3445126,95.8767345 L57.0908664,95.8767345 C59.7046029,95.8767345 61.8402347,98.3521274 61.8402347,101.413274 C61.8402347,104.474421 59.7046029,106.949814 57.0879422,106.949814 Z" id="Shape"></path>
                <path d="M57.0879422,74.6038088 L33.3445126,74.6038088 C30.7103069,74.6038088 28.5951444,72.1284159 28.5951444,69.067269 C28.5951444,66.0066903 30.7103069,63.5307292 33.3445126,63.5307292 L57.0908664,63.5307292 C59.7046029,63.5307292 61.8402347,66.0061221 61.8402347,69.067269 C61.8402347,72.1284159 59.7046029,74.6038088 57.0879422,74.6038088 Z" id="Shape"></path>
            </g>
            <g id="noun_869020_cc" transform="translate(1175.000000, 109.000000)" fill-rule="nonzero" fill="#000000">
                <path d="M112.896552,289.027264 C110.282816,289.027264 108.14426,286.554712 108.14426,283.487315 L108.14426,11.3821487 L15.0683394,11.3821487 L25.0690614,25.3533186 C25.7737906,26.3475664 26.1627076,27.602023 26.1627076,28.9007947 L26.1627076,283.490156 C26.1627076,286.554712 24.0475451,289.030104 21.4133394,289.030104 C18.7996029,289.030104 16.6610469,286.557552 16.6610469,283.490156 L16.6610469,30.900085 L1.28176895,9.3936531 C0.092599278,7.73979292 -0.145722022,5.44677345 0.632111913,3.49861593 C1.41287004,1.55045841 3.08355596,0.309637168 4.93749097,0.309637168 L112.890704,0.309637168 C115.521498,0.309637168 117.639585,2.78503009 117.639585,5.84617699 L117.639585,283.490724 C117.645433,286.554712 115.527347,289.027264 112.896552,289.027264 Z" id="Shape"></path>
                <path d="M130.204332,320.730133 L4.94333935,320.730133 C2.30620939,320.730133 0.188122744,318.25474 0.188122744,315.193593 L0.188122744,283.486747 C0.188122744,280.429577 2.3032852,277.950775 4.94333935,277.950775 L130.204332,277.950775 C132.838538,277.950775 134.9537,280.426168 134.9537,283.486747 L134.9537,315.193593 C134.954188,318.25474 132.839025,320.730133 130.204332,320.730133 Z M9.68978339,309.66103 L125.455451,309.66103 L125.455451,289.027264 L9.68978339,289.027264 L9.68978339,309.66103 Z" id="Shape"></path>
                <path d="M53.5306679,255.744961 L33.3469495,255.744961 C30.7127437,255.744961 28.5951444,253.272409 28.5951444,250.208421 L28.5951444,39.1318885 C28.5951444,36.0713097 30.7098195,33.5953487 33.3469495,33.5953487 L53.5306679,33.5953487 C56.1444043,33.5953487 58.2800361,36.0707416 58.2800361,39.1318885 C58.2800361,42.1930354 56.1473285,44.6718372 53.5306679,44.6718372 L38.0963177,44.6718372 L38.0963177,244.674722 L53.5306679,244.674722 C56.1444043,244.674722 58.2800361,247.150115 58.2800361,250.211262 C58.2800361,253.272409 56.1473285,255.744961 53.5306679,255.744961 Z" id="Shape"></path>
                <path d="M57.0879422,221.012193 L33.3445126,221.012193 C30.7103069,221.012193 28.5951444,218.5368 28.5951444,215.475653 C28.5951444,212.414506 30.7103069,209.939113 33.3445126,209.939113 L57.0908664,209.939113 C59.7046029,209.939113 61.8402347,212.411665 61.8402347,215.475653 C61.8373105,218.536232 59.7046029,221.012193 57.0879422,221.012193 Z" id="Shape"></path>
                <path d="M57.0879422,183.552913 L33.3445126,183.552913 C30.7103069,183.552913 28.5951444,181.076952 28.5951444,178.016373 C28.5951444,174.955795 30.7103069,172.479834 33.3445126,172.479834 L57.0908664,172.479834 C59.7046029,172.479834 61.8402347,174.955227 61.8402347,178.016373 C61.8402347,181.07752 59.7046029,183.552913 57.0879422,183.552913 Z" id="Shape"></path>
                <path d="M57.0879422,144.669871 L33.3445126,144.669871 C30.7103069,144.669871 28.5951444,142.194478 28.5951444,139.133331 C28.5951444,136.072184 30.7103069,133.596791 33.3445126,133.596791 L57.0908664,133.596791 C59.7046029,133.596791 61.8402347,136.072184 61.8402347,139.133331 C61.8402347,142.194478 59.7046029,144.669871 57.0879422,144.669871 Z" id="Shape"></path>
                <path d="M57.0879422,106.949814 L33.3445126,106.949814 C30.7103069,106.949814 28.5951444,104.474421 28.5951444,101.413274 C28.5951444,98.3521274 30.7103069,95.8767345 33.3445126,95.8767345 L57.0908664,95.8767345 C59.7046029,95.8767345 61.8402347,98.3521274 61.8402347,101.413274 C61.8402347,104.474421 59.7046029,106.949814 57.0879422,106.949814 Z" id="Shape"></path>
                <path d="M57.0879422,74.6038088 L33.3445126,74.6038088 C30.7103069,74.6038088 28.5951444,72.1284159 28.5951444,69.067269 C28.5951444,66.0066903 30.7103069,63.5307292 33.3445126,63.5307292 L57.0908664,63.5307292 C59.7046029,63.5307292 61.8402347,66.0061221 61.8402347,69.067269 C61.8402347,72.1284159 59.7046029,74.6038088 57.0879422,74.6038088 Z" id="Shape"></path>
            </g>
            <g id="noun_869020_cc" transform="translate(110.000000, 549.000000)" fill-rule="nonzero" fill="#000000">
                <path d="M112.896552,289.027264 C110.282816,289.027264 108.14426,286.554712 108.14426,283.487315 L108.14426,11.3821487 L15.0683394,11.3821487 L25.0690614,25.3533186 C25.7737906,26.3475664 26.1627076,27.602023 26.1627076,28.9007947 L26.1627076,283.490156 C26.1627076,286.554712 24.0475451,289.030104 21.4133394,289.030104 C18.7996029,289.030104 16.6610469,286.557552 16.6610469,283.490156 L16.6610469,30.900085 L1.28176895,9.3936531 C0.092599278,7.73979292 -0.145722022,5.44677345 0.632111913,3.49861593 C1.41287004,1.55045841 3.08355596,0.309637168 4.93749097,0.309637168 L112.890704,0.309637168 C115.521498,0.309637168 117.639585,2.78503009 117.639585,5.84617699 L117.639585,283.490724 C117.645433,286.554712 115.527347,289.027264 112.896552,289.027264 Z" id="Shape"></path>
                <path d="M130.204332,320.730133 L4.94333935,320.730133 C2.30620939,320.730133 0.188122744,318.25474 0.188122744,315.193593 L0.188122744,283.486747 C0.188122744,280.429577 2.3032852,277.950775 4.94333935,277.950775 L130.204332,277.950775 C132.838538,277.950775 134.9537,280.426168 134.9537,283.486747 L134.9537,315.193593 C134.954188,318.25474 132.839025,320.730133 130.204332,320.730133 Z M9.68978339,309.66103 L125.455451,309.66103 L125.455451,289.027264 L9.68978339,289.027264 L9.68978339,309.66103 Z" id="Shape"></path>
                <path d="M53.5306679,255.744961 L33.3469495,255.744961 C30.7127437,255.744961 28.5951444,253.272409 28.5951444,250.208421 L28.5951444,39.1318885 C28.5951444,36.0713097 30.7098195,33.5953487 33.3469495,33.5953487 L53.5306679,33.5953487 C56.1444043,33.5953487 58.2800361,36.0707416 58.2800361,39.1318885 C58.2800361,42.1930354 56.1473285,44.6718372 53.5306679,44.6718372 L38.0963177,44.6718372 L38.0963177,244.674722 L53.5306679,244.674722 C56.1444043,244.674722 58.2800361,247.150115 58.2800361,250.211262 C58.2800361,253.272409 56.1473285,255.744961 53.5306679,255.744961 Z" id="Shape"></path>
                <path d="M57.0879422,221.012193 L33.3445126,221.012193 C30.7103069,221.012193 28.5951444,218.5368 28.5951444,215.475653 C28.5951444,212.414506 30.7103069,209.939113 33.3445126,209.939113 L57.0908664,209.939113 C59.7046029,209.939113 61.8402347,212.411665 61.8402347,215.475653 C61.8373105,218.536232 59.7046029,221.012193 57.0879422,221.012193 Z" id="Shape"></path>
                <path d="M57.0879422,183.552913 L33.3445126,183.552913 C30.7103069,183.552913 28.5951444,181.076952 28.5951444,178.016373 C28.5951444,174.955795 30.7103069,172.479834 33.3445126,172.479834 L57.0908664,172.479834 C59.7046029,172.479834 61.8402347,174.955227 61.8402347,178.016373 C61.8402347,181.07752 59.7046029,183.552913 57.0879422,183.552913 Z" id="Shape"></path>
                <path d="M57.0879422,144.669871 L33.3445126,144.669871 C30.7103069,144.669871 28.5951444,142.194478 28.5951444,139.133331 C28.5951444,136.072184 30.7103069,133.596791 33.3445126,133.596791 L57.0908664,133.596791 C59.7046029,133.596791 61.8402347,136.072184 61.8402347,139.133331 C61.8402347,142.194478 59.7046029,144.669871 57.0879422,144.669871 Z" id="Shape"></path>
                <path d="M57.0879422,106.949814 L33.3445126,106.949814 C30.7103069,106.949814 28.5951444,104.474421 28.5951444,101.413274 C28.5951444,98.3521274 30.7103069,95.8767345 33.3445126,95.8767345 L57.0908664,95.8767345 C59.7046029,95.8767345 61.8402347,98.3521274 61.8402347,101.413274 C61.8402347,104.474421 59.7046029,106.949814 57.0879422,106.949814 Z" id="Shape"></path>
                <path d="M57.0879422,74.6038088 L33.3445126,74.6038088 C30.7103069,74.6038088 28.5951444,72.1284159 28.5951444,69.067269 C28.5951444,66.0066903 30.7103069,63.5307292 33.3445126,63.5307292 L57.0908664,63.5307292 C59.7046029,63.5307292 61.8402347,66.0061221 61.8402347,69.067269 C61.8402347,72.1284159 59.7046029,74.6038088 57.0879422,74.6038088 Z" id="Shape"></path>
            </g>
            <g id="noun_869020_cc" transform="translate(319.000000, 549.000000)" fill-rule="nonzero" fill="#000000">
                <path d="M112.896552,289.027264 C110.282816,289.027264 108.14426,286.554712 108.14426,283.487315 L108.14426,11.3821487 L15.0683394,11.3821487 L25.0690614,25.3533186 C25.7737906,26.3475664 26.1627076,27.602023 26.1627076,28.9007947 L26.1627076,283.490156 C26.1627076,286.554712 24.0475451,289.030104 21.4133394,289.030104 C18.7996029,289.030104 16.6610469,286.557552 16.6610469,283.490156 L16.6610469,30.900085 L1.28176895,9.3936531 C0.092599278,7.73979292 -0.145722022,5.44677345 0.632111913,3.49861593 C1.41287004,1.55045841 3.08355596,0.309637168 4.93749097,0.309637168 L112.890704,0.309637168 C115.521498,0.309637168 117.639585,2.78503009 117.639585,5.84617699 L117.639585,283.490724 C117.645433,286.554712 115.527347,289.027264 112.896552,289.027264 Z" id="Shape"></path>
                <path d="M130.204332,320.730133 L4.94333935,320.730133 C2.30620939,320.730133 0.188122744,318.25474 0.188122744,315.193593 L0.188122744,283.486747 C0.188122744,280.429577 2.3032852,277.950775 4.94333935,277.950775 L130.204332,277.950775 C132.838538,277.950775 134.9537,280.426168 134.9537,283.486747 L134.9537,315.193593 C134.954188,318.25474 132.839025,320.730133 130.204332,320.730133 Z M9.68978339,309.66103 L125.455451,309.66103 L125.455451,289.027264 L9.68978339,289.027264 L9.68978339,309.66103 Z" id="Shape"></path>
                <path d="M53.5306679,255.744961 L33.3469495,255.744961 C30.7127437,255.744961 28.5951444,253.272409 28.5951444,250.208421 L28.5951444,39.1318885 C28.5951444,36.0713097 30.7098195,33.5953487 33.3469495,33.5953487 L53.5306679,33.5953487 C56.1444043,33.5953487 58.2800361,36.0707416 58.2800361,39.1318885 C58.2800361,42.1930354 56.1473285,44.6718372 53.5306679,44.6718372 L38.0963177,44.6718372 L38.0963177,244.674722 L53.5306679,244.674722 C56.1444043,244.674722 58.2800361,247.150115 58.2800361,250.211262 C58.2800361,253.272409 56.1473285,255.744961 53.5306679,255.744961 Z" id="Shape"></path>
                <path d="M57.0879422,221.012193 L33.3445126,221.012193 C30.7103069,221.012193 28.5951444,218.5368 28.5951444,215.475653 C28.5951444,212.414506 30.7103069,209.939113 33.3445126,209.939113 L57.0908664,209.939113 C59.7046029,209.939113 61.8402347,212.411665 61.8402347,215.475653 C61.8373105,218.536232 59.7046029,221.012193 57.0879422,221.012193 Z" id="Shape"></path>
                <path d="M57.0879422,183.552913 L33.3445126,183.552913 C30.7103069,183.552913 28.5951444,181.076952 28.5951444,178.016373 C28.5951444,174.955795 30.7103069,172.479834 33.3445126,172.479834 L57.0908664,172.479834 C59.7046029,172.479834 61.8402347,174.955227 61.8402347,178.016373 C61.8402347,181.07752 59.7046029,183.552913 57.0879422,183.552913 Z" id="Shape"></path>
                <path d="M57.0879422,144.669871 L33.3445126,144.669871 C30.7103069,144.669871 28.5951444,142.194478 28.5951444,139.133331 C28.5951444,136.072184 30.7103069,133.596791 33.3445126,133.596791 L57.0908664,133.596791 C59.7046029,133.596791 61.8402347,136.072184 61.8402347,139.133331 C61.8402347,142.194478 59.7046029,144.669871 57.0879422,144.669871 Z" id="Shape"></path>
                <path d="M57.0879422,106.949814 L33.3445126,106.949814 C30.7103069,106.949814 28.5951444,104.474421 28.5951444,101.413274 C28.5951444,98.3521274 30.7103069,95.8767345 33.3445126,95.8767345 L57.0908664,95.8767345 C59.7046029,95.8767345 61.8402347,98.3521274 61.8402347,101.413274 C61.8402347,104.474421 59.7046029,106.949814 57.0879422,106.949814 Z" id="Shape"></path>
                <path d="M57.0879422,74.6038088 L33.3445126,74.6038088 C30.7103069,74.6038088 28.5951444,72.1284159 28.5951444,69.067269 C28.5951444,66.0066903 30.7103069,63.5307292 33.3445126,63.5307292 L57.0908664,63.5307292 C59.7046029,63.5307292 61.8402347,66.0061221 61.8402347,69.067269 C61.8402347,72.1284159 59.7046029,74.6038088 57.0879422,74.6038088 Z" id="Shape"></path>
            </g>
            <g id="noun_869020_cc" transform="translate(528.000000, 549.000000)" fill-rule="nonzero" fill="#000000">
                <path d="M112.896552,289.027264 C110.282816,289.027264 108.14426,286.554712 108.14426,283.487315 L108.14426,11.3821487 L15.0683394,11.3821487 L25.0690614,25.3533186 C25.7737906,26.3475664 26.1627076,27.602023 26.1627076,28.9007947 L26.1627076,283.490156 C26.1627076,286.554712 24.0475451,289.030104 21.4133394,289.030104 C18.7996029,289.030104 16.6610469,286.557552 16.6610469,283.490156 L16.6610469,30.900085 L1.28176895,9.3936531 C0.092599278,7.73979292 -0.145722022,5.44677345 0.632111913,3.49861593 C1.41287004,1.55045841 3.08355596,0.309637168 4.93749097,0.309637168 L112.890704,0.309637168 C115.521498,0.309637168 117.639585,2.78503009 117.639585,5.84617699 L117.639585,283.490724 C117.645433,286.554712 115.527347,289.027264 112.896552,289.027264 Z" id="Shape"></path>
                <path d="M130.204332,320.730133 L4.94333935,320.730133 C2.30620939,320.730133 0.188122744,318.25474 0.188122744,315.193593 L0.188122744,283.486747 C0.188122744,280.429577 2.3032852,277.950775 4.94333935,277.950775 L130.204332,277.950775 C132.838538,277.950775 134.9537,280.426168 134.9537,283.486747 L134.9537,315.193593 C134.954188,318.25474 132.839025,320.730133 130.204332,320.730133 Z M9.68978339,309.66103 L125.455451,309.66103 L125.455451,289.027264 L9.68978339,289.027264 L9.68978339,309.66103 Z" id="Shape"></path>
                <path d="M53.5306679,255.744961 L33.3469495,255.744961 C30.7127437,255.744961 28.5951444,253.272409 28.5951444,250.208421 L28.5951444,39.1318885 C28.5951444,36.0713097 30.7098195,33.5953487 33.3469495,33.5953487 L53.5306679,33.5953487 C56.1444043,33.5953487 58.2800361,36.0707416 58.2800361,39.1318885 C58.2800361,42.1930354 56.1473285,44.6718372 53.5306679,44.6718372 L38.0963177,44.6718372 L38.0963177,244.674722 L53.5306679,244.674722 C56.1444043,244.674722 58.2800361,247.150115 58.2800361,250.211262 C58.2800361,253.272409 56.1473285,255.744961 53.5306679,255.744961 Z" id="Shape"></path>
                <path d="M57.0879422,221.012193 L33.3445126,221.012193 C30.7103069,221.012193 28.5951444,218.5368 28.5951444,215.475653 C28.5951444,212.414506 30.7103069,209.939113 33.3445126,209.939113 L57.0908664,209.939113 C59.7046029,209.939113 61.8402347,212.411665 61.8402347,215.475653 C61.8373105,218.536232 59.7046029,221.012193 57.0879422,221.012193 Z" id="Shape"></path>
                <path d="M57.0879422,183.552913 L33.3445126,183.552913 C30.7103069,183.552913 28.5951444,181.076952 28.5951444,178.016373 C28.5951444,174.955795 30.7103069,172.479834 33.3445126,172.479834 L57.0908664,172.479834 C59.7046029,172.479834 61.8402347,174.955227 61.8402347,178.016373 C61.8402347,181.07752 59.7046029,183.552913 57.0879422,183.552913 Z" id="Shape"></path>
                <path d="M57.0879422,144.669871 L33.3445126,144.669871 C30.7103069,144.669871 28.5951444,142.194478 28.5951444,139.133331 C28.5951444,136.072184 30.7103069,133.596791 33.3445126,133.596791 L57.0908664,133.596791 C59.7046029,133.596791 61.8402347,136.072184 61.8402347,139.133331 C61.8402347,142.194478 59.7046029,144.669871 57.0879422,144.669871 Z" id="Shape"></path>
                <path d="M57.0879422,106.949814 L33.3445126,106.949814 C30.7103069,106.949814 28.5951444,104.474421 28.5951444,101.413274 C28.5951444,98.3521274 30.7103069,95.8767345 33.3445126,95.8767345 L57.0908664,95.8767345 C59.7046029,95.8767345 61.8402347,98.3521274 61.8402347,101.413274 C61.8402347,104.474421 59.7046029,106.949814 57.0879422,106.949814 Z" id="Shape"></path>
                <path d="M57.0879422,74.6038088 L33.3445126,74.6038088 C30.7103069,74.6038088 28.5951444,72.1284159 28.5951444,69.067269 C28.5951444,66.0066903 30.7103069,63.5307292 33.3445126,63.5307292 L57.0908664,63.5307292 C59.7046029,63.5307292 61.8402347,66.0061221 61.8402347,69.067269 C61.8402347,72.1284159 59.7046029,74.6038088 57.0879422,74.6038088 Z" id="Shape"></path>
            </g>
            <g id="noun_869020_cc" transform="translate(757.000000, 549.000000)" fill-rule="nonzero" fill="#000000">
                <path d="M112.896552,289.027264 C110.282816,289.027264 108.14426,286.554712 108.14426,283.487315 L108.14426,11.3821487 L15.0683394,11.3821487 L25.0690614,25.3533186 C25.7737906,26.3475664 26.1627076,27.602023 26.1627076,28.9007947 L26.1627076,283.490156 C26.1627076,286.554712 24.0475451,289.030104 21.4133394,289.030104 C18.7996029,289.030104 16.6610469,286.557552 16.6610469,283.490156 L16.6610469,30.900085 L1.28176895,9.3936531 C0.092599278,7.73979292 -0.145722022,5.44677345 0.632111913,3.49861593 C1.41287004,1.55045841 3.08355596,0.309637168 4.93749097,0.309637168 L112.890704,0.309637168 C115.521498,0.309637168 117.639585,2.78503009 117.639585,5.84617699 L117.639585,283.490724 C117.645433,286.554712 115.527347,289.027264 112.896552,289.027264 Z" id="Shape"></path>
                <path d="M130.204332,320.730133 L4.94333935,320.730133 C2.30620939,320.730133 0.188122744,318.25474 0.188122744,315.193593 L0.188122744,283.486747 C0.188122744,280.429577 2.3032852,277.950775 4.94333935,277.950775 L130.204332,277.950775 C132.838538,277.950775 134.9537,280.426168 134.9537,283.486747 L134.9537,315.193593 C134.954188,318.25474 132.839025,320.730133 130.204332,320.730133 Z M9.68978339,309.66103 L125.455451,309.66103 L125.455451,289.027264 L9.68978339,289.027264 L9.68978339,309.66103 Z" id="Shape"></path>
                <path d="M53.5306679,255.744961 L33.3469495,255.744961 C30.7127437,255.744961 28.5951444,253.272409 28.5951444,250.208421 L28.5951444,39.1318885 C28.5951444,36.0713097 30.7098195,33.5953487 33.3469495,33.5953487 L53.5306679,33.5953487 C56.1444043,33.5953487 58.2800361,36.0707416 58.2800361,39.1318885 C58.2800361,42.1930354 56.1473285,44.6718372 53.5306679,44.6718372 L38.0963177,44.6718372 L38.0963177,244.674722 L53.5306679,244.674722 C56.1444043,244.674722 58.2800361,247.150115 58.2800361,250.211262 C58.2800361,253.272409 56.1473285,255.744961 53.5306679,255.744961 Z" id="Shape"></path>
                <path d="M57.0879422,221.012193 L33.3445126,221.012193 C30.7103069,221.012193 28.5951444,218.5368 28.5951444,215.475653 C28.5951444,212.414506 30.7103069,209.939113 33.3445126,209.939113 L57.0908664,209.939113 C59.7046029,209.939113 61.8402347,212.411665 61.8402347,215.475653 C61.8373105,218.536232 59.7046029,221.012193 57.0879422,221.012193 Z" id="Shape"></path>
                <path d="M57.0879422,183.552913 L33.3445126,183.552913 C30.7103069,183.552913 28.5951444,181.076952 28.5951444,178.016373 C28.5951444,174.955795 30.7103069,172.479834 33.3445126,172.479834 L57.0908664,172.479834 C59.7046029,172.479834 61.8402347,174.955227 61.8402347,178.016373 C61.8402347,181.07752 59.7046029,183.552913 57.0879422,183.552913 Z" id="Shape"></path>
                <path d="M57.0879422,144.669871 L33.3445126,144.669871 C30.7103069,144.669871 28.5951444,142.194478 28.5951444,139.133331 C28.5951444,136.072184 30.7103069,133.596791 33.3445126,133.596791 L57.0908664,133.596791 C59.7046029,133.596791 61.8402347,136.072184 61.8402347,139.133331 C61.8402347,142.194478 59.7046029,144.669871 57.0879422,144.669871 Z" id="Shape"></path>
                <path d="M57.0879422,106.949814 L33.3445126,106.949814 C30.7103069,106.949814 28.5951444,104.474421 28.5951444,101.413274 C28.5951444,98.3521274 30.7103069,95.8767345 33.3445126,95.8767345 L57.0908664,95.8767345 C59.7046029,95.8767345 61.8402347,98.3521274 61.8402347,101.413274 C61.8402347,104.474421 59.7046029,106.949814 57.0879422,106.949814 Z" id="Shape"></path>
                <path d="M57.0879422,74.6038088 L33.3445126,74.6038088 C30.7103069,74.6038088 28.5951444,72.1284159 28.5951444,69.067269 C28.5951444,66.0066903 30.7103069,63.5307292 33.3445126,63.5307292 L57.0908664,63.5307292 C59.7046029,63.5307292 61.8402347,66.0061221 61.8402347,69.067269 C61.8402347,72.1284159 59.7046029,74.6038088 57.0879422,74.6038088 Z" id="Shape"></path>
            </g>
            <g id="noun_869020_cc" transform="translate(966.000000, 549.000000)" fill-rule="nonzero" fill="#000000">
                <path d="M112.896552,289.027264 C110.282816,289.027264 108.14426,286.554712 108.14426,283.487315 L108.14426,11.3821487 L15.0683394,11.3821487 L25.0690614,25.3533186 C25.7737906,26.3475664 26.1627076,27.602023 26.1627076,28.9007947 L26.1627076,283.490156 C26.1627076,286.554712 24.0475451,289.030104 21.4133394,289.030104 C18.7996029,289.030104 16.6610469,286.557552 16.6610469,283.490156 L16.6610469,30.900085 L1.28176895,9.3936531 C0.092599278,7.73979292 -0.145722022,5.44677345 0.632111913,3.49861593 C1.41287004,1.55045841 3.08355596,0.309637168 4.93749097,0.309637168 L112.890704,0.309637168 C115.521498,0.309637168 117.639585,2.78503009 117.639585,5.84617699 L117.639585,283.490724 C117.645433,286.554712 115.527347,289.027264 112.896552,289.027264 Z" id="Shape"></path>
                <path d="M130.204332,320.730133 L4.94333935,320.730133 C2.30620939,320.730133 0.188122744,318.25474 0.188122744,315.193593 L0.188122744,283.486747 C0.188122744,280.429577 2.3032852,277.950775 4.94333935,277.950775 L130.204332,277.950775 C132.838538,277.950775 134.9537,280.426168 134.9537,283.486747 L134.9537,315.193593 C134.954188,318.25474 132.839025,320.730133 130.204332,320.730133 Z M9.68978339,309.66103 L125.455451,309.66103 L125.455451,289.027264 L9.68978339,289.027264 L9.68978339,309.66103 Z" id="Shape"></path>
                <path d="M53.5306679,255.744961 L33.3469495,255.744961 C30.7127437,255.744961 28.5951444,253.272409 28.5951444,250.208421 L28.5951444,39.1318885 C28.5951444,36.0713097 30.7098195,33.5953487 33.3469495,33.5953487 L53.5306679,33.5953487 C56.1444043,33.5953487 58.2800361,36.0707416 58.2800361,39.1318885 C58.2800361,42.1930354 56.1473285,44.6718372 53.5306679,44.6718372 L38.0963177,44.6718372 L38.0963177,244.674722 L53.5306679,244.674722 C56.1444043,244.674722 58.2800361,247.150115 58.2800361,250.211262 C58.2800361,253.272409 56.1473285,255.744961 53.5306679,255.744961 Z" id="Shape"></path>
                <path d="M57.0879422,221.012193 L33.3445126,221.012193 C30.7103069,221.012193 28.5951444,218.5368 28.5951444,215.475653 C28.5951444,212.414506 30.7103069,209.939113 33.3445126,209.939113 L57.0908664,209.939113 C59.7046029,209.939113 61.8402347,212.411665 61.8402347,215.475653 C61.8373105,218.536232 59.7046029,221.012193 57.0879422,221.012193 Z" id="Shape"></path>
                <path d="M57.0879422,183.552913 L33.3445126,183.552913 C30.7103069,183.552913 28.5951444,181.076952 28.5951444,178.016373 C28.5951444,174.955795 30.7103069,172.479834 33.3445126,172.479834 L57.0908664,172.479834 C59.7046029,172.479834 61.8402347,174.955227 61.8402347,178.016373 C61.8402347,181.07752 59.7046029,183.552913 57.0879422,183.552913 Z" id="Shape"></path>
                <path d="M57.0879422,144.669871 L33.3445126,144.669871 C30.7103069,144.669871 28.5951444,142.194478 28.5951444,139.133331 C28.5951444,136.072184 30.7103069,133.596791 33.3445126,133.596791 L57.0908664,133.596791 C59.7046029,133.596791 61.8402347,136.072184 61.8402347,139.133331 C61.8402347,142.194478 59.7046029,144.669871 57.0879422,144.669871 Z" id="Shape"></path>
                <path d="M57.0879422,106.949814 L33.3445126,106.949814 C30.7103069,106.949814 28.5951444,104.474421 28.5951444,101.413274 C28.5951444,98.3521274 30.7103069,95.8767345 33.3445126,95.8767345 L57.0908664,95.8767345 C59.7046029,95.8767345 61.8402347,98.3521274 61.8402347,101.413274 C61.8402347,104.474421 59.7046029,106.949814 57.0879422,106.949814 Z" id="Shape"></path>
                <path d="M57.0879422,74.6038088 L33.3445126,74.6038088 C30.7103069,74.6038088 28.5951444,72.1284159 28.5951444,69.067269 C28.5951444,66.0066903 30.7103069,63.5307292 33.3445126,63.5307292 L57.0908664,63.5307292 C59.7046029,63.5307292 61.8402347,66.0061221 61.8402347,69.067269 C61.8402347,72.1284159 59.7046029,74.6038088 57.0879422,74.6038088 Z" id="Shape"></path>
            </g>
            <g id="noun_869020_cc" transform="translate(1175.000000, 549.000000)" fill-rule="nonzero" fill="#000000">
                <path d="M112.896552,289.027264 C110.282816,289.027264 108.14426,286.554712 108.14426,283.487315 L108.14426,11.3821487 L15.0683394,11.3821487 L25.0690614,25.3533186 C25.7737906,26.3475664 26.1627076,27.602023 26.1627076,28.9007947 L26.1627076,283.490156 C26.1627076,286.554712 24.0475451,289.030104 21.4133394,289.030104 C18.7996029,289.030104 16.6610469,286.557552 16.6610469,283.490156 L16.6610469,30.900085 L1.28176895,9.3936531 C0.092599278,7.73979292 -0.145722022,5.44677345 0.632111913,3.49861593 C1.41287004,1.55045841 3.08355596,0.309637168 4.93749097,0.309637168 L112.890704,0.309637168 C115.521498,0.309637168 117.639585,2.78503009 117.639585,5.84617699 L117.639585,283.490724 C117.645433,286.554712 115.527347,289.027264 112.896552,289.027264 Z" id="Shape"></path>
                <path d="M130.204332,320.730133 L4.94333935,320.730133 C2.30620939,320.730133 0.188122744,318.25474 0.188122744,315.193593 L0.188122744,283.486747 C0.188122744,280.429577 2.3032852,277.950775 4.94333935,277.950775 L130.204332,277.950775 C132.838538,277.950775 134.9537,280.426168 134.9537,283.486747 L134.9537,315.193593 C134.954188,318.25474 132.839025,320.730133 130.204332,320.730133 Z M9.68978339,309.66103 L125.455451,309.66103 L125.455451,289.027264 L9.68978339,289.027264 L9.68978339,309.66103 Z" id="Shape"></path>
                <path d="M53.5306679,255.744961 L33.3469495,255.744961 C30.7127437,255.744961 28.5951444,253.272409 28.5951444,250.208421 L28.5951444,39.1318885 C28.5951444,36.0713097 30.7098195,33.5953487 33.3469495,33.5953487 L53.5306679,33.5953487 C56.1444043,33.5953487 58.2800361,36.0707416 58.2800361,39.1318885 C58.2800361,42.1930354 56.1473285,44.6718372 53.5306679,44.6718372 L38.0963177,44.6718372 L38.0963177,244.674722 L53.5306679,244.674722 C56.1444043,244.674722 58.2800361,247.150115 58.2800361,250.211262 C58.2800361,253.272409 56.1473285,255.744961 53.5306679,255.744961 Z" id="Shape"></path>
                <path d="M57.0879422,221.012193 L33.3445126,221.012193 C30.7103069,221.012193 28.5951444,218.5368 28.5951444,215.475653 C28.5951444,212.414506 30.7103069,209.939113 33.3445126,209.939113 L57.0908664,209.939113 C59.7046029,209.939113 61.8402347,212.411665 61.8402347,215.475653 C61.8373105,218.536232 59.7046029,221.012193 57.0879422,221.012193 Z" id="Shape"></path>
                <path d="M57.0879422,183.552913 L33.3445126,183.552913 C30.7103069,183.552913 28.5951444,181.076952 28.5951444,178.016373 C28.5951444,174.955795 30.7103069,172.479834 33.3445126,172.479834 L57.0908664,172.479834 C59.7046029,172.479834 61.8402347,174.955227 61.8402347,178.016373 C61.8402347,181.07752 59.7046029,183.552913 57.0879422,183.552913 Z" id="Shape"></path>
                <path d="M57.0879422,144.669871 L33.3445126,144.669871 C30.7103069,144.669871 28.5951444,142.194478 28.5951444,139.133331 C28.5951444,136.072184 30.7103069,133.596791 33.3445126,133.596791 L57.0908664,133.596791 C59.7046029,133.596791 61.8402347,136.072184 61.8402347,139.133331 C61.8402347,142.194478 59.7046029,144.669871 57.0879422,144.669871 Z" id="Shape"></path>
                <path d="M57.0879422,106.949814 L33.3445126,106.949814 C30.7103069,106.949814 28.5951444,104.474421 28.5951444,101.413274 C28.5951444,98.3521274 30.7103069,95.8767345 33.3445126,95.8767345 L57.0908664,95.8767345 C59.7046029,95.8767345 61.8402347,98.3521274 61.8402347,101.413274 C61.8402347,104.474421 59.7046029,106.949814 57.0879422,106.949814 Z" id="Shape"></path>
                <path d="M57.0879422,74.6038088 L33.3445126,74.6038088 C30.7103069,74.6038088 28.5951444,72.1284159 28.5951444,69.067269 C28.5951444,66.0066903 30.7103069,63.5307292 33.3445126,63.5307292 L57.0908664,63.5307292 C59.7046029,63.5307292 61.8402347,66.0061221 61.8402347,69.067269 C61.8402347,72.1284159 59.7046029,74.6038088 57.0879422,74.6038088 Z" id="Shape"></path>
            </g>
            <text id="SUGAR-CROPS" font-family="AvenirNext-Regular, Avenir Next" font-size="24" font-weight="normal" fill="#6C6C6C">
                <tspan x="137.276" y="469">SUGAR</tspan>
                <tspan x="137.744" y="502">CROPS</tspan>
            </text>
            <text id="EGGS" font-family="AvenirNext-Regular, Avenir Next" font-size="24" font-weight="normal" fill="#6C6C6C">
                <tspan x="144.932" y="909">EGGS</tspan>
            </text>
            <text id="BUTTER" font-family="AvenirNext-Regular, Avenir Next" font-size="24" font-weight="normal" fill="#6C6C6C">
                <tspan x="545.376" y="909">BUTTER</tspan>
            </text>
            <text id="PIG-MEAT" font-family="AvenirNext-Regular, Avenir Next" font-size="24" font-weight="normal" fill="#6C6C6C">
                <tspan x="773.096" y="909">PIG MEAT</tspan>
            </text>
            <text id="SHEEP-MEAT" font-family="AvenirNext-Regular, Avenir Next" font-size="24" font-weight="normal" fill="#6C6C6C">
                <tspan x="960.972" y="909">SHEEP MEAT</tspan>
            </text>
            <text id="BOVINE-MEAT" font-family="AvenirNext-Regular, Avenir Next" font-size="24" font-weight="normal" fill="#6C6C6C">
                <tspan x="1162.324" y="909">BOVINE MEAT</tspan>
            </text>
            <text id="CHICKEN-MEAT" font-family="AvenirNext-Regular, Avenir Next" font-size="24" font-weight="normal" fill="#6C6C6C">
                <tspan x="334.176" y="909">CHICKEN</tspan>
                <tspan x="354.024" y="942">MEAT</tspan>
            </text>
            <text id="VEGETABLES" font-family="AvenirNext-Regular, Avenir Next" font-size="24" font-weight="normal" fill="#6C6C6C">
                <tspan x="312.604" y="469">VEGETABLES</tspan>
            </text>
            <text id="FRUITS" font-family="AvenirNext-Regular, Avenir Next" font-size="24" font-weight="normal" fill="#6C6C6C">
                <tspan x="549.82" y="469">FRUITS</tspan>
            </text>
            <text id="CEREALS" font-family="AvenirNext-Regular, Avenir Next" font-size="24" font-weight="normal" fill="#6C6C6C">
                <tspan x="773.176" y="469">CEREALS</tspan>
            </text>
            <text id="NUTS" font-family="AvenirNext-Regular, Avenir Next" font-size="24" font-weight="normal" fill="#6C6C6C">
                <tspan x="1002.204" y="469">NUTS</tspan>
            </text>
            <text id="MILK" font-family="AvenirNext-Regular, Avenir Next" font-size="24" font-weight="normal" fill="#6C6C6C">
                <tspan x="1215.092" y="469">MILK</tspan>
            </text>
            <g id="noun_869020_cc" transform="translate(15.000000, 845.000000)" fill-rule="nonzero" fill="#000000">
                <path d="M74.4280975,153.967795 C72.7049675,153.967795 71.2951047,152.650641 71.2951047,151.016607 L71.2951047,6.06338761 L9.93394224,6.06338761 L16.5270108,13.5059735 C16.9916101,14.0356195 17.2480072,14.7038814 17.2480072,15.3957504 L17.2480072,151.01812 C17.2480072,152.650641 15.8535668,153.969308 14.1169422,153.969308 C12.3938123,153.969308 10.9839495,152.652154 10.9839495,151.01812 L10.9839495,16.4607929 L0.845018051,5.00409558 C0.0610469314,4.12306726 -0.0960685921,2.90155221 0.416725632,1.86374867 C0.931447653,0.825945133 2.03286282,0.164946903 3.25508664,0.164946903 L74.4242419,0.164946903 C76.1586173,0.164946903 77.5549856,1.48361416 77.5549856,3.11431858 L77.5549856,151.018423 C77.5588412,152.650641 76.1624729,153.967795 74.4280975,153.967795 Z" id="Shape"></path>
                <path d="M85.8384116,170.856239 L3.25894224,170.856239 C1.52038989,170.856239 0.124021661,169.537572 0.124021661,167.906867 L0.124021661,151.016304 C0.124021661,149.387719 1.51846209,148.067235 3.25894224,148.067235 L85.8384116,148.067235 C87.5750361,148.067235 88.9694765,149.385903 88.9694765,151.016304 L88.9694765,167.906867 C88.9697978,169.537572 87.5753574,170.856239 85.8384116,170.856239 Z M6.38807942,164.959614 L82.7076679,164.959614 L82.7076679,153.967795 L6.38807942,153.967795 L6.38807942,164.959614 Z" id="Shape"></path>
                <path d="M35.2905884,136.23797 L21.9842852,136.23797 C20.2476606,136.23797 18.8516137,134.920816 18.8516137,133.288598 L18.8516137,20.8459593 C18.8516137,19.2155575 20.2457329,17.8965876 21.9842852,17.8965876 L35.2905884,17.8965876 C37.0137184,17.8965876 38.4216534,19.2152549 38.4216534,20.8459593 C38.4216534,22.4766637 37.0156462,23.7971469 35.2905884,23.7971469 L25.1153502,23.7971469 L25.1153502,130.34074 L35.2905884,130.34074 C37.0137184,130.34074 38.4216534,131.659407 38.4216534,133.290112 C38.4216534,134.920816 37.0156462,136.23797 35.2905884,136.23797 Z" id="Shape"></path>
                <path d="M37.6357545,117.735467 L21.9826787,117.735467 C20.2460542,117.735467 18.8516137,116.4168 18.8516137,114.786096 C18.8516137,113.155391 20.2460542,111.836724 21.9826787,111.836724 L37.6376823,111.836724 C39.3608123,111.836724 40.7687473,113.153878 40.7687473,114.786096 C40.7668195,116.416497 39.3608123,117.735467 37.6357545,117.735467 Z" id="Shape"></path>
                <path d="M37.6357545,97.7805239 L21.9826787,97.7805239 C20.2460542,97.7805239 18.8516137,96.461554 18.8516137,94.8311522 C18.8516137,93.2007504 20.2460542,91.8817805 21.9826787,91.8817805 L37.6376823,91.8817805 C39.3608123,91.8817805 40.7687473,93.2004478 40.7687473,94.8311522 C40.7687473,96.4618566 39.3608123,97.7805239 37.6357545,97.7805239 Z" id="Shape"></path>
                <path d="M37.6357545,77.0671274 L21.9826787,77.0671274 C20.2460542,77.0671274 18.8516137,75.7484602 18.8516137,74.1177558 C18.8516137,72.4870513 20.2460542,71.1683841 21.9826787,71.1683841 L37.6376823,71.1683841 C39.3608123,71.1683841 40.7687473,72.4870513 40.7687473,74.1177558 C40.7687473,75.7484602 39.3608123,77.0671274 37.6357545,77.0671274 Z" id="Shape"></path>
                <path d="M37.6357545,56.9732655 L21.9826787,56.9732655 C20.2460542,56.9732655 18.8516137,55.6545982 18.8516137,54.0238938 C18.8516137,52.3931894 20.2460542,51.0745221 21.9826787,51.0745221 L37.6376823,51.0745221 C39.3608123,51.0745221 40.7687473,52.3931894 40.7687473,54.0238938 C40.7687473,55.6545982 39.3608123,56.9732655 37.6357545,56.9732655 Z" id="Shape"></path>
                <path d="M37.6357545,39.7422159 L21.9826787,39.7422159 C20.2460542,39.7422159 18.8516137,38.4235487 18.8516137,36.7928442 C18.8516137,35.1624425 20.2460542,33.8434726 21.9826787,33.8434726 L37.6376823,33.8434726 C39.3608123,33.8434726 40.7687473,35.1621398 40.7687473,36.7928442 C40.7687473,38.4235487 39.3608123,39.7422159 37.6357545,39.7422159 Z" id="Shape"></path>
            </g>
            <text id="=-1927L" font-family="AvenirNext-Regular, Avenir Next" font-size="36" font-weight="normal">
                <tspan x="97.572" y="988" fill="#000000">= 1927L</tspan>
                <tspan x="232.428" y="988" fill="#6C6C6C"> </tspan>
                <tspan x="241.428" y="988" fill="#6C6C6C"> </tspan>
            </text>
        </g>
    </g>
</svg>