<?xml version="1.0" encoding="UTF-8"?>
<svg width="1440px" height="1024px" viewBox="0 0 1440 1024" version="1.1" xmlns="http://www.w3.org/2000/svg" xmlns:xlink="http://www.w3.org/1999/xlink">
    <!-- Generator: Sketch 44.1 (41455) - http://www.bohemiancoding.com/sketch -->
    <title>Desktop HD</title>
    <desc>Created with Sketch.</desc>
    <defs>
        <polygon id="path-1" points="211 148.249139 866.66007 162.517708 893.318106 140.592491 933.403322 138.720398 952.720231 129.02338 1009.31772 140.445247 1030.89937 139.975471 1054.54944 178.945846 1084.86051 178.854695 1116.44769 159.635948 1130.25349 160.961137 1142.45365 121.864554 1166.02659 112.896741 1248.37762 107 1255.92909 148.143965 1254.37252 183.279004 1250.01833 211.311309 1196.63915 365.005193 1194.87925 400.119197 1141.55616 518.741146 1049.48007 620.409089 1015.74033 680.035584 980.282761 775.224825 950.027783 827.741577 920.494999 945.059371 912.971571 985.186656 884.427419 986 781.93211 926.261319 774.808342 885.902651 746.390399 849.533574 625.237269 844.751675 574.129846 826.297191 552.029339 823.043816 523.933928 841.940031 498.587058 836.478008 467.055973 794.085982 401.602852 753.278573 390.363286 705.782114 366.755289 694.255073 344.949268 709.659519 287.636594 643.68053 221.426223 642.733967"></polygon>
    </defs>
    <g id="Water" stroke="none" stroke-width="1" fill="none" fill-rule="evenodd">
        <g id="Desktop-HD">
            <g id="TractorSymbol" transform="translate(417.000000, 208.000000)" fill-rule="nonzero" fill="#000000">
                <path d="M19.732803,24.7425846 C19.732803,24.2977451 19.6877273,23.897367 19.6426515,23.4525275 L18.244697,23.2300703 L19.417197,22.4738505 C19.1916667,21.6287077 18.8759848,20.8280264 18.4250758,20.1162681 L17.072197,20.3831868 L17.8387879,19.226589 C17.2976515,18.559367 16.7113636,17.9366066 15.9898485,17.402844 L14.8172727,18.1590637 L15.0878788,16.8246198 C14.3663636,16.3797802 13.5546212,16.0684 12.6977273,15.8460176 L11.9762121,17.0026154 L11.7056061,15.6681714 C11.2997727,15.6237099 10.8487879,15.5792484 10.397803,15.5792484 C9.94681818,15.5792484 9.54090909,15.6237099 9.08992424,15.6681714 L8.8644697,17.0026154 L8.09780303,15.8460176 C7.24090909,16.0684747 6.42924242,16.3798549 5.70765152,16.8246198 L5.97818182,18.1590637 L4.80568182,17.402844 C4.12916667,17.9366813 3.49780303,18.5149055 2.95666667,19.226589 L3.72333333,20.3831868 L2.37045455,20.1162681 C1.9194697,20.8279516 1.60378788,21.6287077 1.37833333,22.4738505 L2.55083333,23.2300703 L1.15287879,23.496989 C1.10772727,23.8972923 1.10772727,24.3421319 1.10772727,24.7425099 C1.10772727,25.1872747 1.15287879,25.5876527 1.19787879,26.0324923 L2.59590909,26.2993363 L1.42333333,27.055556 C1.64886364,27.9007736 1.96454545,28.7013802 2.4155303,29.4131385 L3.76840909,29.1462945 L3.00174242,30.3028176 C3.54295455,30.9701143 4.12916667,31.5928747 4.85068182,32.1266374 L6.02325758,31.3704176 L5.75272727,32.7048615 C6.47424242,33.1497011 7.28598485,33.4610813 8.14287879,33.6835385 L8.9094697,32.5269407 L9.18007576,33.9058462 C9.58590909,33.9503824 10.0368939,33.9947692 10.4878788,33.9947692 C10.9388636,33.9947692 11.3447727,33.9503077 11.7956818,33.9058462 L12.0662879,32.5269407 L12.8329545,33.6835385 C13.6897727,33.4610813 14.5015152,33.1497011 15.2231061,32.7048615 L14.9525,31.3704176 L16.1250758,32.1266374 C16.8015152,31.5928 17.4328788,31.0145011 17.9740152,30.3028176 L17.2073485,29.1462945 L18.560303,29.4131385 C19.0112121,28.7014549 19.3268939,27.9007736 19.5524242,27.055556 L18.2446212,26.2993363 L19.6425758,26.0324923 C19.6877273,25.6322637 19.732803,25.1873495 19.732803,24.7425846 Z M10.3977273,30.5252747 C7.0605303,30.5252747 4.30962121,27.8563121 4.30962121,24.5202022 C4.30962121,21.2284791 7.01545455,18.5150549 10.3977273,18.5150549 C13.7349242,18.5150549 16.4857576,21.1840176 16.4857576,24.5202022 C16.4858333,27.8118505 13.78,30.5252747 10.3977273,30.5252747 Z" id="Shape"></path>
                <ellipse id="Oval" cx="10.3977273" cy="24.7425846" rx="2.84106061" ry="2.80234725"></ellipse>
                <path d="M36.869697,23.3636044 L39.9362879,14.0222725 L30.6462879,14.0222725 L30.6462879,6.8606022 L27.4895455,6.8606022 L27.4895455,14.0222725 L22.7543182,14.0222725 L18.9210606,0.0547736264 L4.26454545,0.0547736264 L4.26454545,12.509833 L0.0254545455,14.9118769 L1.78424242,17.6253011 C1.9194697,17.5363033 2.05477273,17.4473802 2.19007576,17.3583824 C4.21939394,15.1787209 7.15068182,13.7997407 10.3977273,13.7997407 C16.5760606,13.7997407 21.5817424,18.7372879 21.5817424,24.831433 C21.5817424,25.2317363 21.5366667,25.6765758 21.4915909,26.0769538 L23.8817424,26.0769538 L23.9718939,23.3635297 L27.9404545,23.3635297 C26.8130303,24.4311297 26.0915152,25.9434945 26.0915152,27.6337802 C26.0915152,30.8810418 28.752197,33.5500044 32.0893939,33.5500044 C35.3815152,33.5500044 38.0873485,30.9255033 38.0873485,27.6337802 C38.0873485,25.9434945 37.3658333,24.4311297 36.2384091,23.3635297 L36.869697,23.3635297 L36.869697,23.3636044 Z M7.10568182,10.6416264 L7.10568182,3.16857582 L16.7564394,3.16857582 L18.7406818,10.6416264 L7.10568182,10.6416264 L7.10568182,10.6416264 Z M32.0443182,31.6818725 C29.924697,31.6818725 28.2110606,29.9915121 28.2110606,27.9008484 C28.2110606,25.8101099 29.924697,24.1198242 32.0443182,24.1198242 C34.1638636,24.1198242 35.8775758,25.8101099 35.8775758,27.9008484 C35.8775,29.9914374 34.1637879,31.6818725 32.0443182,31.6818725 Z" id="Shape"></path>
            </g>
            <g id="Windmill-Symbol" transform="translate(462.000000, 192.000000)" fill-rule="nonzero" fill="#000000">
                <polygon id="Shape" points="17.4757342 24.5405757 13.0177881 29.0140831 12.0642658 35.7052819 17.4757342 35.7052819 17.4757342 37.3578932 11.8303903 37.3578932 11.1238848 42.3155964 7.59467472 42.3155964 7.59467472 43.9681424 27.3567937 43.9681424 27.3567937 42.3155964 23.82921 42.3155964 22.416329 32.4001899 17.4757342 32.4001899 17.4757342 30.7476439 22.1824535 30.7476439 21.9337454 29.0140831"></polygon>
                <path d="M12.5352695,17.5270801 C12.5352695,17.6163205 12.5566729,17.6989674 12.5616171,17.7848783 L0.00936802974,30.3823917 L4.66664498,35.0558576 L17.2205204,22.4600415 C17.3078253,22.465003 17.3901208,22.4864807 17.4757993,22.4864807 C17.5631041,22.4864807 17.6437732,22.465003 17.7310781,22.4600415 L30.2849535,35.0558576 L34.9422305,30.3823917 L22.3899164,17.7865757 C22.3948606,17.6989674 22.4162639,17.6163858 22.4162639,17.5287774 C22.4162639,17.4411691 22.3948606,17.3602196 22.3899164,17.2743086 L23.2990056,16.3604273 L34.9421654,4.67346588 L30.2865149,0 L17.7343309,12.595816 C17.647026,12.5925519 17.5647305,12.5693769 17.4757342,12.5693769 C17.386868,12.5693769 17.3044424,12.5908546 17.2204554,12.595816 L4.66664498,0 L0.00936802974,4.67346588 L11.6542193,16.35873 L12.5616171,17.2692819 C12.5566729,17.3568902 12.5352695,17.4395371 12.5352695,17.5270801 Z M17.4757342,14.2219881 C19.2938476,14.2219881 20.7694424,15.7027122 20.7694424,17.5270801 C20.7694424,19.3515134 19.2938476,20.8321721 17.4757342,20.8321721 C15.6559944,20.8321721 14.1820911,19.3531454 14.1820911,17.5270801 C14.1820911,15.7010148 15.6576859,14.2219881 17.4757342,14.2219881 Z" id="Shape"></path>
            </g>
            <g id="NSW-Boarder">
                <use stroke="#979797" stroke-width="1" xlink:href="#path-1"></use>
                <use stroke="#000000" stroke-width="10" xlink:href="#path-1"></use>
            </g>
            <text id="=-458-GL-Water" font-family="AvenirNext-Regular, Avenir Next" font-size="48" font-weight="normal" fill="#6C6C6C">
                <tspan x="192" y="943">= 458 GL Water</tspan>
            </text>
            <g id="Bucket-1" transform="translate(253.000000, 214.000000)" fill-rule="nonzero" fill="#000000">
                <path d="M28.120663,21.6313976 L25.72186,43.2627953 L5.29313129,43.2627953 L2.90579212,21.6313976 L28.120663,21.6313976 Z M0.0647811816,20.4287092 L2.75228446,44.7640059 C2.8278512,45.4486825 3.40308096,45.9666261 4.08779431,45.9666261 L26.9311991,45.9666261 C27.6159125,45.9666261 28.1910744,45.4486825 28.266709,44.7640059 L30.9542123,20.4287092 C31.0426674,19.6278724 30.419547,18.9274303 29.6187024,18.9274303 L1.40035886,18.9274303 C0.599446389,18.9274985 -0.0236061269,19.6278724 0.0647811816,20.4287092 Z" id="Shape"></path>
                <path d="M25.5874136,14.8715816 L25.5874136,18.9274985 C25.5874136,19.6741454 26.1890306,20.2794481 26.9311991,20.2794481 C27.6733676,20.2794481 28.2749847,19.6741454 28.2749847,18.9274985 L28.2749847,14.8715816 C28.2749847,10.2200534 26.3738775,6.17621662 22.7922582,3.93177151 C22.1622867,3.5370178 21.3335624,3.7308457 20.9412123,4.36460831 C20.54893,4.99843917 20.7415098,5.83217211 21.3714136,6.22692582 C24.1030088,7.93875371 25.5874136,11.0961691 25.5874136,14.8715816 Z" id="Shape"></path>
                <path d="M5.43157987,14.8715816 C5.43157987,11.0962374 6.91598468,7.93875371 9.6476477,6.22692582 C10.2775514,5.83217211 10.4701313,4.99843917 10.0777812,4.36460831 C9.68549891,3.7308457 8.85677462,3.53708605 8.22680306,3.93183976 C4.64518381,6.17628487 2.74407659,10.2201217 2.74407659,14.8716499 L2.74407659,18.9275668 C2.74407659,19.6742136 3.34569365,20.2795163 4.08786214,20.2795163 C4.83003063,20.2795163 5.4316477,19.6742136 5.4316477,18.9275668 L5.4316477,14.8715816 L5.43157987,14.8715816 Z" id="Shape"></path>
                <path d="M12.146709,2.70389911 L18.8722845,2.70389911 C19.6095689,2.70389911 20.2125427,3.312273 20.2125427,4.05584866 L20.2125427,4.73192582 C20.2125427,5.47809496 19.6108578,6.08387537 18.8722845,6.08387537 L12.146709,6.08387537 C11.4094245,6.08387537 10.8064508,5.47556973 10.8064508,4.73192582 L10.8064508,4.05584866 C10.8064508,3.30974777 11.4081357,2.70389911 12.146709,2.70389911 Z M8.11901532,4.73192582 C8.11901532,6.96715727 9.92345952,8.78777448 12.146709,8.78777448 L18.8722845,8.78777448 C21.0955339,8.78777448 22.8999781,6.97091098 22.8999781,4.73192582 L22.8999781,4.05584866 C22.8999781,1.82061721 21.0956018,0 18.8722845,0 L12.146709,0 C9.92339168,0 8.11901532,1.8168635 8.11901532,4.05584866 L8.11901532,4.73192582 Z" id="Shape"></path>
            </g>
            <g id="Bucket-2" transform="translate(253.000000, 261.000000)" fill-rule="nonzero" fill="#000000">
                <path d="M28.120663,21.6313976 L25.72186,43.2627953 L5.29313129,43.2627953 L2.90579212,21.6313976 L28.120663,21.6313976 Z M0.0647811816,20.4287092 L2.75228446,44.7640059 C2.8278512,45.4486825 3.40308096,45.9666261 4.08779431,45.9666261 L26.9311991,45.9666261 C27.6159125,45.9666261 28.1910744,45.4486825 28.266709,44.7640059 L30.9542123,20.4287092 C31.0426674,19.6278724 30.419547,18.9274303 29.6187024,18.9274303 L1.40035886,18.9274303 C0.599446389,18.9274985 -0.0236061269,19.6278724 0.0647811816,20.4287092 Z" id="Shape"></path>
                <path d="M25.5874136,14.8715816 L25.5874136,18.9274985 C25.5874136,19.6741454 26.1890306,20.2794481 26.9311991,20.2794481 C27.6733676,20.2794481 28.2749847,19.6741454 28.2749847,18.9274985 L28.2749847,14.8715816 C28.2749847,10.2200534 26.3738775,6.17621662 22.7922582,3.93177151 C22.1622867,3.5370178 21.3335624,3.7308457 20.9412123,4.36460831 C20.54893,4.99843917 20.7415098,5.83217211 21.3714136,6.22692582 C24.1030088,7.93875371 25.5874136,11.0961691 25.5874136,14.8715816 Z" id="Shape"></path>
                <path d="M5.43157987,14.8715816 C5.43157987,11.0962374 6.91598468,7.93875371 9.6476477,6.22692582 C10.2775514,5.83217211 10.4701313,4.99843917 10.0777812,4.36460831 C9.68549891,3.7308457 8.85677462,3.53708605 8.22680306,3.93183976 C4.64518381,6.17628487 2.74407659,10.2201217 2.74407659,14.8716499 L2.74407659,18.9275668 C2.74407659,19.6742136 3.34569365,20.2795163 4.08786214,20.2795163 C4.83003063,20.2795163 5.4316477,19.6742136 5.4316477,18.9275668 L5.4316477,14.8715816 L5.43157987,14.8715816 Z" id="Shape"></path>
                <path d="M12.146709,2.70389911 L18.8722845,2.70389911 C19.6095689,2.70389911 20.2125427,3.312273 20.2125427,4.05584866 L20.2125427,4.73192582 C20.2125427,5.47809496 19.6108578,6.08387537 18.8722845,6.08387537 L12.146709,6.08387537 C11.4094245,6.08387537 10.8064508,5.47556973 10.8064508,4.73192582 L10.8064508,4.05584866 C10.8064508,3.30974777 11.4081357,2.70389911 12.146709,2.70389911 Z M8.11901532,4.73192582 C8.11901532,6.96715727 9.92345952,8.78777448 12.146709,8.78777448 L18.8722845,8.78777448 C21.0955339,8.78777448 22.8999781,6.97091098 22.8999781,4.73192582 L22.8999781,4.05584866 C22.8999781,1.82061721 21.0956018,0 18.8722845,0 L12.146709,0 C9.92339168,0 8.11901532,1.8168635 8.11901532,4.05584866 L8.11901532,4.73192582 Z" id="Shape"></path>
            </g>
            <g id="Bucket-3" transform="translate(285.000000, 214.000000)" fill-rule="nonzero" fill="#000000">
                <path d="M28.120663,21.6313976 L25.72186,43.2627953 L5.29313129,43.2627953 L2.90579212,21.6313976 L28.120663,21.6313976 Z M0.0647811816,20.4287092 L2.75228446,44.7640059 C2.8278512,45.4486825 3.40308096,45.9666261 4.08779431,45.9666261 L26.9311991,45.9666261 C27.6159125,45.9666261 28.1910744,45.4486825 28.266709,44.7640059 L30.9542123,20.4287092 C31.0426674,19.6278724 30.419547,18.9274303 29.6187024,18.9274303 L1.40035886,18.9274303 C0.599446389,18.9274985 -0.0236061269,19.6278724 0.0647811816,20.4287092 Z" id="Shape"></path>
                <path d="M25.5874136,14.8715816 L25.5874136,18.9274985 C25.5874136,19.6741454 26.1890306,20.2794481 26.9311991,20.2794481 C27.6733676,20.2794481 28.2749847,19.6741454 28.2749847,18.9274985 L28.2749847,14.8715816 C28.2749847,10.2200534 26.3738775,6.17621662 22.7922582,3.93177151 C22.1622867,3.5370178 21.3335624,3.7308457 20.9412123,4.36460831 C20.54893,4.99843917 20.7415098,5.83217211 21.3714136,6.22692582 C24.1030088,7.93875371 25.5874136,11.0961691 25.5874136,14.8715816 Z" id="Shape"></path>
                <path d="M5.43157987,14.8715816 C5.43157987,11.0962374 6.91598468,7.93875371 9.6476477,6.22692582 C10.2775514,5.83217211 10.4701313,4.99843917 10.0777812,4.36460831 C9.68549891,3.7308457 8.85677462,3.53708605 8.22680306,3.93183976 C4.64518381,6.17628487 2.74407659,10.2201217 2.74407659,14.8716499 L2.74407659,18.9275668 C2.74407659,19.6742136 3.34569365,20.2795163 4.08786214,20.2795163 C4.83003063,20.2795163 5.4316477,19.6742136 5.4316477,18.9275668 L5.4316477,14.8715816 L5.43157987,14.8715816 Z" id="Shape"></path>
                <path d="M12.146709,2.70389911 L18.8722845,2.70389911 C19.6095689,2.70389911 20.2125427,3.312273 20.2125427,4.05584866 L20.2125427,4.73192582 C20.2125427,5.47809496 19.6108578,6.08387537 18.8722845,6.08387537 L12.146709,6.08387537 C11.4094245,6.08387537 10.8064508,5.47556973 10.8064508,4.73192582 L10.8064508,4.05584866 C10.8064508,3.30974777 11.4081357,2.70389911 12.146709,2.70389911 Z M8.11901532,4.73192582 C8.11901532,6.96715727 9.92345952,8.78777448 12.146709,8.78777448 L18.8722845,8.78777448 C21.0955339,8.78777448 22.8999781,6.97091098 22.8999781,4.73192582 L22.8999781,4.05584866 C22.8999781,1.82061721 21.0956018,0 18.8722845,0 L12.146709,0 C9.92339168,0 8.11901532,1.8168635 8.11901532,4.05584866 L8.11901532,4.73192582 Z" id="Shape"></path>
            </g>
            <g id="Bucket-4" transform="translate(285.000000, 261.000000)" fill-rule="nonzero" fill="#000000">
                <path d="M28.120663,21.6313976 L25.72186,43.2627953 L5.29313129,43.2627953 L2.90579212,21.6313976 L28.120663,21.6313976 Z M0.0647811816,20.4287092 L2.75228446,44.7640059 C2.8278512,45.4486825 3.40308096,45.9666261 4.08779431,45.9666261 L26.9311991,45.9666261 C27.6159125,45.9666261 28.1910744,45.4486825 28.266709,44.7640059 L30.9542123,20.4287092 C31.0426674,19.6278724 30.419547,18.9274303 29.6187024,18.9274303 L1.40035886,18.9274303 C0.599446389,18.9274985 -0.0236061269,19.6278724 0.0647811816,20.4287092 Z" id="Shape"></path>
                <path d="M25.5874136,14.8715816 L25.5874136,18.9274985 C25.5874136,19.6741454 26.1890306,20.2794481 26.9311991,20.2794481 C27.6733676,20.2794481 28.2749847,19.6741454 28.2749847,18.9274985 L28.2749847,14.8715816 C28.2749847,10.2200534 26.3738775,6.17621662 22.7922582,3.93177151 C22.1622867,3.5370178 21.3335624,3.7308457 20.9412123,4.36460831 C20.54893,4.99843917 20.7415098,5.83217211 21.3714136,6.22692582 C24.1030088,7.93875371 25.5874136,11.0961691 25.5874136,14.8715816 Z" id="Shape"></path>
                <path d="M5.43157987,14.8715816 C5.43157987,11.0962374 6.91598468,7.93875371 9.6476477,6.22692582 C10.2775514,5.83217211 10.4701313,4.99843917 10.0777812,4.36460831 C9.68549891,3.7308457 8.85677462,3.53708605 8.22680306,3.93183976 C4.64518381,6.17628487 2.74407659,10.2201217 2.74407659,14.8716499 L2.74407659,18.9275668 C2.74407659,19.6742136 3.34569365,20.2795163 4.08786214,20.2795163 C4.83003063,20.2795163 5.4316477,19.6742136 5.4316477,18.9275668 L5.4316477,14.8715816 L5.43157987,14.8715816 Z" id="Shape"></path>
                <path d="M12.146709,2.70389911 L18.8722845,2.70389911 C19.6095689,2.70389911 20.2125427,3.312273 20.2125427,4.05584866 L20.2125427,4.73192582 C20.2125427,5.47809496 19.6108578,6.08387537 18.8722845,6.08387537 L12.146709,6.08387537 C11.4094245,6.08387537 10.8064508,5.47556973 10.8064508,4.73192582 L10.8064508,4.05584866 C10.8064508,3.30974777 11.4081357,2.70389911 12.146709,2.70389911 Z M8.11901532,4.73192582 C8.11901532,6.96715727 9.92345952,8.78777448 12.146709,8.78777448 L18.8722845,8.78777448 C21.0955339,8.78777448 22.8999781,6.97091098 22.8999781,4.73192582 L22.8999781,4.05584866 C22.8999781,1.82061721 21.0956018,0 18.8722845,0 L12.146709,0 C9.92339168,0 8.11901532,1.8168635 8.11901532,4.05584866 L8.11901532,4.73192582 Z" id="Shape"></path>
            </g>
            <g id="Bucket-5" transform="translate(318.000000, 214.000000)" fill-rule="nonzero" fill="#000000">
                <path d="M28.120663,21.6313976 L25.72186,43.2627953 L5.29313129,43.2627953 L2.90579212,21.6313976 L28.120663,21.6313976 Z M0.0647811816,20.4287092 L2.75228446,44.7640059 C2.8278512,45.4486825 3.40308096,45.9666261 4.08779431,45.9666261 L26.9311991,45.9666261 C27.6159125,45.9666261 28.1910744,45.4486825 28.266709,44.7640059 L30.9542123,20.4287092 C31.0426674,19.6278724 30.419547,18.9274303 29.6187024,18.9274303 L1.40035886,18.9274303 C0.599446389,18.9274985 -0.0236061269,19.6278724 0.0647811816,20.4287092 Z" id="Shape"></path>
                <path d="M25.5874136,14.8715816 L25.5874136,18.9274985 C25.5874136,19.6741454 26.1890306,20.2794481 26.9311991,20.2794481 C27.6733676,20.2794481 28.2749847,19.6741454 28.2749847,18.9274985 L28.2749847,14.8715816 C28.2749847,10.2200534 26.3738775,6.17621662 22.7922582,3.93177151 C22.1622867,3.5370178 21.3335624,3.7308457 20.9412123,4.36460831 C20.54893,4.99843917 20.7415098,5.83217211 21.3714136,6.22692582 C24.1030088,7.93875371 25.5874136,11.0961691 25.5874136,14.8715816 Z" id="Shape"></path>
                <path d="M5.43157987,14.8715816 C5.43157987,11.0962374 6.91598468,7.93875371 9.6476477,6.22692582 C10.2775514,5.83217211 10.4701313,4.99843917 10.0777812,4.36460831 C9.68549891,3.7308457 8.85677462,3.53708605 8.22680306,3.93183976 C4.64518381,6.17628487 2.74407659,10.2201217 2.74407659,14.8716499 L2.74407659,18.9275668 C2.74407659,19.6742136 3.34569365,20.2795163 4.08786214,20.2795163 C4.83003063,20.2795163 5.4316477,19.6742136 5.4316477,18.9275668 L5.4316477,14.8715816 L5.43157987,14.8715816 Z" id="Shape"></path>
                <path d="M12.146709,2.70389911 L18.8722845,2.70389911 C19.6095689,2.70389911 20.2125427,3.312273 20.2125427,4.05584866 L20.2125427,4.73192582 C20.2125427,5.47809496 19.6108578,6.08387537 18.8722845,6.08387537 L12.146709,6.08387537 C11.4094245,6.08387537 10.8064508,5.47556973 10.8064508,4.73192582 L10.8064508,4.05584866 C10.8064508,3.30974777 11.4081357,2.70389911 12.146709,2.70389911 Z M8.11901532,4.73192582 C8.11901532,6.96715727 9.92345952,8.78777448 12.146709,8.78777448 L18.8722845,8.78777448 C21.0955339,8.78777448 22.8999781,6.97091098 22.8999781,4.73192582 L22.8999781,4.05584866 C22.8999781,1.82061721 21.0956018,0 18.8722845,0 L12.146709,0 C9.92339168,0 8.11901532,1.8168635 8.11901532,4.05584866 L8.11901532,4.73192582 Z" id="Shape"></path>
            </g>
            <g id="Bucket-6" transform="translate(317.000000, 261.000000)" fill-rule="nonzero" fill="#000000">
                <path d="M28.120663,21.6313976 L25.72186,43.2627953 L5.29313129,43.2627953 L2.90579212,21.6313976 L28.120663,21.6313976 Z M0.0647811816,20.4287092 L2.75228446,44.7640059 C2.8278512,45.4486825 3.40308096,45.9666261 4.08779431,45.9666261 L26.9311991,45.9666261 C27.6159125,45.9666261 28.1910744,45.4486825 28.266709,44.7640059 L30.9542123,20.4287092 C31.0426674,19.6278724 30.419547,18.9274303 29.6187024,18.9274303 L1.40035886,18.9274303 C0.599446389,18.9274985 -0.0236061269,19.6278724 0.0647811816,20.4287092 Z" id="Shape"></path>
                <path d="M25.5874136,14.8715816 L25.5874136,18.9274985 C25.5874136,19.6741454 26.1890306,20.2794481 26.9311991,20.2794481 C27.6733676,20.2794481 28.2749847,19.6741454 28.2749847,18.9274985 L28.2749847,14.8715816 C28.2749847,10.2200534 26.3738775,6.17621662 22.7922582,3.93177151 C22.1622867,3.5370178 21.3335624,3.7308457 20.9412123,4.36460831 C20.54893,4.99843917 20.7415098,5.83217211 21.3714136,6.22692582 C24.1030088,7.93875371 25.5874136,11.0961691 25.5874136,14.8715816 Z" id="Shape"></path>
                <path d="M5.43157987,14.8715816 C5.43157987,11.0962374 6.91598468,7.93875371 9.6476477,6.22692582 C10.2775514,5.83217211 10.4701313,4.99843917 10.0777812,4.36460831 C9.68549891,3.7308457 8.85677462,3.53708605 8.22680306,3.93183976 C4.64518381,6.17628487 2.74407659,10.2201217 2.74407659,14.8716499 L2.74407659,18.9275668 C2.74407659,19.6742136 3.34569365,20.2795163 4.08786214,20.2795163 C4.83003063,20.2795163 5.4316477,19.6742136 5.4316477,18.9275668 L5.4316477,14.8715816 L5.43157987,14.8715816 Z" id="Shape"></path>
                <path d="M12.146709,2.70389911 L18.8722845,2.70389911 C19.6095689,2.70389911 20.2125427,3.312273 20.2125427,4.05584866 L20.2125427,4.73192582 C20.2125427,5.47809496 19.6108578,6.08387537 18.8722845,6.08387537 L12.146709,6.08387537 C11.4094245,6.08387537 10.8064508,5.47556973 10.8064508,4.73192582 L10.8064508,4.05584866 C10.8064508,3.30974777 11.4081357,2.70389911 12.146709,2.70389911 Z M8.11901532,4.73192582 C8.11901532,6.96715727 9.92345952,8.78777448 12.146709,8.78777448 L18.8722845,8.78777448 C21.0955339,8.78777448 22.8999781,6.97091098 22.8999781,4.73192582 L22.8999781,4.05584866 C22.8999781,1.82061721 21.0956018,0 18.8722845,0 L12.146709,0 C9.92339168,0 8.11901532,1.8168635 8.11901532,4.05584866 L8.11901532,4.73192582 Z" id="Shape"></path>
            </g>
            <g id="Bucket-7" transform="translate(351.000000, 214.000000)" fill-rule="nonzero" fill="#000000">
                <path d="M28.120663,21.6313976 L25.72186,43.2627953 L5.29313129,43.2627953 L2.90579212,21.6313976 L28.120663,21.6313976 Z M0.0647811816,20.4287092 L2.75228446,44.7640059 C2.8278512,45.4486825 3.40308096,45.9666261 4.08779431,45.9666261 L26.9311991,45.9666261 C27.6159125,45.9666261 28.1910744,45.4486825 28.266709,44.7640059 L30.9542123,20.4287092 C31.0426674,19.6278724 30.419547,18.9274303 29.6187024,18.9274303 L1.40035886,18.9274303 C0.599446389,18.9274985 -0.0236061269,19.6278724 0.0647811816,20.4287092 Z" id="Shape"></path>
                <path d="M25.5874136,14.8715816 L25.5874136,18.9274985 C25.5874136,19.6741454 26.1890306,20.2794481 26.9311991,20.2794481 C27.6733676,20.2794481 28.2749847,19.6741454 28.2749847,18.9274985 L28.2749847,14.8715816 C28.2749847,10.2200534 26.3738775,6.17621662 22.7922582,3.93177151 C22.1622867,3.5370178 21.3335624,3.7308457 20.9412123,4.36460831 C20.54893,4.99843917 20.7415098,5.83217211 21.3714136,6.22692582 C24.1030088,7.93875371 25.5874136,11.0961691 25.5874136,14.8715816 Z" id="Shape"></path>
                <path d="M5.43157987,14.8715816 C5.43157987,11.0962374 6.91598468,7.93875371 9.6476477,6.22692582 C10.2775514,5.83217211 10.4701313,4.99843917 10.0777812,4.36460831 C9.68549891,3.7308457 8.85677462,3.53708605 8.22680306,3.93183976 C4.64518381,6.17628487 2.74407659,10.2201217 2.74407659,14.8716499 L2.74407659,18.9275668 C2.74407659,19.6742136 3.34569365,20.2795163 4.08786214,20.2795163 C4.83003063,20.2795163 5.4316477,19.6742136 5.4316477,18.9275668 L5.4316477,14.8715816 L5.43157987,14.8715816 Z" id="Shape"></path>
                <path d="M12.146709,2.70389911 L18.8722845,2.70389911 C19.6095689,2.70389911 20.2125427,3.312273 20.2125427,4.05584866 L20.2125427,4.73192582 C20.2125427,5.47809496 19.6108578,6.08387537 18.8722845,6.08387537 L12.146709,6.08387537 C11.4094245,6.08387537 10.8064508,5.47556973 10.8064508,4.73192582 L10.8064508,4.05584866 C10.8064508,3.30974777 11.4081357,2.70389911 12.146709,2.70389911 Z M8.11901532,4.73192582 C8.11901532,6.96715727 9.92345952,8.78777448 12.146709,8.78777448 L18.8722845,8.78777448 C21.0955339,8.78777448 22.8999781,6.97091098 22.8999781,4.73192582 L22.8999781,4.05584866 C22.8999781,1.82061721 21.0956018,0 18.8722845,0 L12.146709,0 C9.92339168,0 8.11901532,1.8168635 8.11901532,4.05584866 L8.11901532,4.73192582 Z" id="Shape"></path>
            </g>
            <g id="Bucket-8" transform="translate(349.000000, 261.000000)" fill-rule="nonzero" fill="#000000">
                <path d="M28.120663,21.6313976 L25.72186,43.2627953 L5.29313129,43.2627953 L2.90579212,21.6313976 L28.120663,21.6313976 Z M0.0647811816,20.4287092 L2.75228446,44.7640059 C2.8278512,45.4486825 3.40308096,45.9666261 4.08779431,45.9666261 L26.9311991,45.9666261 C27.6159125,45.9666261 28.1910744,45.4486825 28.266709,44.7640059 L30.9542123,20.4287092 C31.0426674,19.6278724 30.419547,18.9274303 29.6187024,18.9274303 L1.40035886,18.9274303 C0.599446389,18.9274985 -0.0236061269,19.6278724 0.0647811816,20.4287092 Z" id="Shape"></path>
                <path d="M25.5874136,14.8715816 L25.5874136,18.9274985 C25.5874136,19.6741454 26.1890306,20.2794481 26.9311991,20.2794481 C27.6733676,20.2794481 28.2749847,19.6741454 28.2749847,18.9274985 L28.2749847,14.8715816 C28.2749847,10.2200534 26.3738775,6.17621662 22.7922582,3.93177151 C22.1622867,3.5370178 21.3335624,3.7308457 20.9412123,4.36460831 C20.54893,4.99843917 20.7415098,5.83217211 21.3714136,6.22692582 C24.1030088,7.93875371 25.5874136,11.0961691 25.5874136,14.8715816 Z" id="Shape"></path>
                <path d="M5.43157987,14.8715816 C5.43157987,11.0962374 6.91598468,7.93875371 9.6476477,6.22692582 C10.2775514,5.83217211 10.4701313,4.99843917 10.0777812,4.36460831 C9.68549891,3.7308457 8.85677462,3.53708605 8.22680306,3.93183976 C4.64518381,6.17628487 2.74407659,10.2201217 2.74407659,14.8716499 L2.74407659,18.9275668 C2.74407659,19.6742136 3.34569365,20.2795163 4.08786214,20.2795163 C4.83003063,20.2795163 5.4316477,19.6742136 5.4316477,18.9275668 L5.4316477,14.8715816 L5.43157987,14.8715816 Z" id="Shape"></path>
                <path d="M12.146709,2.70389911 L18.8722845,2.70389911 C19.6095689,2.70389911 20.2125427,3.312273 20.2125427,4.05584866 L20.2125427,4.73192582 C20.2125427,5.47809496 19.6108578,6.08387537 18.8722845,6.08387537 L12.146709,6.08387537 C11.4094245,6.08387537 10.8064508,5.47556973 10.8064508,4.73192582 L10.8064508,4.05584866 C10.8064508,3.30974777 11.4081357,2.70389911 12.146709,2.70389911 Z M8.11901532,4.73192582 C8.11901532,6.96715727 9.92345952,8.78777448 12.146709,8.78777448 L18.8722845,8.78777448 C21.0955339,8.78777448 22.8999781,6.97091098 22.8999781,4.73192582 L22.8999781,4.05584866 C22.8999781,1.82061721 21.0956018,0 18.8722845,0 L12.146709,0 C9.92339168,0 8.11901532,1.8168635 8.11901532,4.05584866 L8.11901532,4.73192582 Z" id="Shape"></path>
            </g>
            <g id="Bucket-9" transform="translate(382.000000, 260.000000)" fill-rule="nonzero" fill="#000000">
                <path d="M28.120663,21.6313976 L25.72186,43.2627953 L5.29313129,43.2627953 L2.90579212,21.6313976 L28.120663,21.6313976 Z M0.0647811816,20.4287092 L2.75228446,44.7640059 C2.8278512,45.4486825 3.40308096,45.9666261 4.08779431,45.9666261 L26.9311991,45.9666261 C27.6159125,45.9666261 28.1910744,45.4486825 28.266709,44.7640059 L30.9542123,20.4287092 C31.0426674,19.6278724 30.419547,18.9274303 29.6187024,18.9274303 L1.40035886,18.9274303 C0.599446389,18.9274985 -0.0236061269,19.6278724 0.0647811816,20.4287092 Z" id="Shape"></path>
                <path d="M25.5874136,14.8715816 L25.5874136,18.9274985 C25.5874136,19.6741454 26.1890306,20.2794481 26.9311991,20.2794481 C27.6733676,20.2794481 28.2749847,19.6741454 28.2749847,18.9274985 L28.2749847,14.8715816 C28.2749847,10.2200534 26.3738775,6.17621662 22.7922582,3.93177151 C22.1622867,3.5370178 21.3335624,3.7308457 20.9412123,4.36460831 C20.54893,4.99843917 20.7415098,5.83217211 21.3714136,6.22692582 C24.1030088,7.93875371 25.5874136,11.0961691 25.5874136,14.8715816 Z" id="Shape"></path>
                <path d="M5.43157987,14.8715816 C5.43157987,11.0962374 6.91598468,7.93875371 9.6476477,6.22692582 C10.2775514,5.83217211 10.4701313,4.99843917 10.0777812,4.36460831 C9.68549891,3.7308457 8.85677462,3.53708605 8.22680306,3.93183976 C4.64518381,6.17628487 2.74407659,10.2201217 2.74407659,14.8716499 L2.74407659,18.9275668 C2.74407659,19.6742136 3.34569365,20.2795163 4.08786214,20.2795163 C4.83003063,20.2795163 5.4316477,19.6742136 5.4316477,18.9275668 L5.4316477,14.8715816 L5.43157987,14.8715816 Z" id="Shape"></path>
                <path d="M12.146709,2.70389911 L18.8722845,2.70389911 C19.6095689,2.70389911 20.2125427,3.312273 20.2125427,4.05584866 L20.2125427,4.73192582 C20.2125427,5.47809496 19.6108578,6.08387537 18.8722845,6.08387537 L12.146709,6.08387537 C11.4094245,6.08387537 10.8064508,5.47556973 10.8064508,4.73192582 L10.8064508,4.05584866 C10.8064508,3.30974777 11.4081357,2.70389911 12.146709,2.70389911 Z M8.11901532,4.73192582 C8.11901532,6.96715727 9.92345952,8.78777448 12.146709,8.78777448 L18.8722845,8.78777448 C21.0955339,8.78777448 22.8999781,6.97091098 22.8999781,4.73192582 L22.8999781,4.05584866 C22.8999781,1.82061721 21.0956018,0 18.8722845,0 L12.146709,0 C9.92339168,0 8.11901532,1.8168635 8.11901532,4.05584866 L8.11901532,4.73192582 Z" id="Shape"></path>
            </g>
            <g id="MainBucket" transform="translate(45.000000, 784.000000)" fill-rule="nonzero" fill="#000000">
                <path d="M111.575534,85.585095 L102.057702,171.17019 L21.001779,171.17019 L11.5294333,85.585095 L111.575534,85.585095 Z M0.257035011,80.826632 L10.9203545,177.109763 C11.2201838,179.8187 13.502547,181.867955 16.2193129,181.867955 L106.856048,181.867955 C109.572814,181.867955 111.854908,179.8187 112.155007,177.109763 L122.818326,80.826632 C123.169293,77.6581039 120.696912,74.8867893 117.519368,74.8867893 L5.55626258,74.8867893 C2.37844858,74.8870593 -0.0936630197,77.6581039 0.257035011,80.826632 Z" id="Shape"></path>
                <path d="M101.524254,58.8397359 L101.524254,74.8870593 C101.524254,77.841184 103.911315,80.2360772 106.856048,80.2360772 C109.800781,80.2360772 112.187842,77.841184 112.187842,74.8870593 L112.187842,58.8397359 C112.187842,40.4358635 104.64474,24.4363353 90.4337987,15.5561395 C87.9342341,13.9942878 84.64607,14.7611721 83.089326,17.2686677 C81.5328512,19.7764332 82.2969584,23.0751157 84.7962538,24.6369674 C95.6345186,31.4098516 101.524254,43.9022344 101.524254,58.8397359 Z" id="Shape"></path>
                <path d="M21.5511072,58.8397359 C21.5511072,43.9025045 27.4408425,31.4098516 38.2793764,24.6369674 C40.7786718,23.0751157 41.542779,19.7764332 39.986035,17.2686677 C38.4295602,14.7611721 35.1413961,13.9945579 32.6418315,15.5564095 C18.4308906,24.4366053 10.8877877,40.4361335 10.8877877,58.8400059 L10.8877877,74.8873294 C10.8877877,77.841454 13.274849,80.2363472 16.2195821,80.2363472 C19.1643151,80.2363472 21.5513764,77.841454 21.5513764,74.8873294 L21.5513764,58.8397359 L21.5511072,58.8397359 Z" id="Shape"></path>
                <path d="M48.1950066,10.6980356 L74.8803545,10.6980356 C77.805709,10.6980356 80.1981532,13.1050801 80.1981532,16.0470534 L80.1981532,18.7219674 C80.1981532,21.6742018 77.8108228,24.0709852 74.8803545,24.0709852 L48.1950066,24.0709852 C45.2696521,24.0709852 42.8772079,21.6642107 42.8772079,18.7219674 L42.8772079,16.0470534 C42.8772079,13.095089 45.2645383,10.6980356 48.1950066,10.6980356 Z M32.2141575,18.7219674 C32.2141575,27.5657092 39.3737265,34.7690208 48.1950066,34.7690208 L74.8803545,34.7690208 C83.7016346,34.7690208 90.8612035,27.5805608 90.8612035,18.7219674 L90.8612035,16.0470534 C90.8612035,7.20331157 83.7019037,0 74.8803545,0 L48.1950066,0 C39.3734573,0 32.2141575,7.18845994 32.2141575,16.0470534 L32.2141575,18.7219674 Z" id="Shape"></path>
            </g>
            <g id="noun_633305_cc" transform="translate(796.000000, 284.000000)" fill-rule="nonzero" fill="#000000">
                <path d="M25.9311991,0.602137503 L24.72186,8.26279525 L4.29313129,8.26279525 L3.08779431,0.602137503 L25.9311991,0.602137503 Z M0.510311328,0.602137503 L1.75228446,9.76400593 C1.8278512,10.4486825 2.40308096,10.9666261 3.08779431,10.9666261 L25.9311991,10.9666261 C26.6159125,10.9666261 27.1910744,10.4486825 27.266709,9.76400593 L28.3359182,0.602137503 C28.4243733,-0.198699293 25.5227046,0.602137503 24.72186,0.602137503 L4.29313129,0.602137503 C3.49221882,0.602205752 0.42192402,-0.198699293 0.510311328,0.602137503 Z" id="Manufacturing-Semi-bucket"></path>
            </g>
            <g id="noun_633305_cc" transform="translate(645.000000, 461.000000)" fill-rule="nonzero" fill="#000000">
                <path d="M25.9311991,0.602137503 L24.72186,8.26279525 L4.29313129,8.26279525 L3.08779431,0.602137503 L25.9311991,0.602137503 Z M0.510311328,0.602137503 L1.75228446,9.76400593 C1.8278512,10.4486825 2.40308096,10.9666261 3.08779431,10.9666261 L25.9311991,10.9666261 C26.6159125,10.9666261 27.1910744,10.4486825 27.266709,9.76400593 L28.3359182,0.602137503 C28.4243733,-0.198699293 25.5227046,0.602137503 24.72186,0.602137503 L4.29313129,0.602137503 C3.49221882,0.602205752 0.42192402,-0.198699293 0.510311328,0.602137503 Z" id="WaterSupplyBucket-3-semi"></path>
            </g>
            <g id="Housing-Bucket-semi" transform="translate(902.000000, 547.000000)" fill-rule="nonzero" fill="#000000">
                <path d="M28.120663,21.6313976 L25.72186,43.2627953 L5.29313129,43.2627953 L2.90579212,21.6313976 L28.120663,21.6313976 Z M0.0647811816,20.4287092 L2.75228446,44.7640059 C2.8278512,45.4486825 3.40308096,45.9666261 4.08779431,45.9666261 L26.9311991,45.9666261 C27.6159125,45.9666261 28.1910744,45.4486825 28.266709,44.7640059 L30.9542123,20.4287092 C31.0426674,19.6278724 30.419547,18.9274303 29.6187024,18.9274303 L1.40035886,18.9274303 C0.599446389,18.9274985 -0.0236061269,19.6278724 0.0647811816,20.4287092 Z" id="Shape"></path>
                <path d="M25.5874136,14.8715816 L25.5874136,18.9274985 C25.5874136,19.6741454 26.1890306,20.2794481 26.9311991,20.2794481 C27.6733676,20.2794481 28.2749847,19.6741454 28.2749847,18.9274985 L28.2749847,14.8715816 C28.2749847,10.2200534 26.3738775,6.17621662 22.7922582,3.93177151 C22.1622867,3.5370178 21.3335624,3.7308457 20.9412123,4.36460831 C20.54893,4.99843917 20.7415098,5.83217211 21.3714136,6.22692582 C24.1030088,7.93875371 25.5874136,11.0961691 25.5874136,14.8715816 Z" id="Shape"></path>
                <path d="M5.43157987,14.8715816 C5.43157987,11.0962374 6.91598468,7.93875371 9.6476477,6.22692582 C10.2775514,5.83217211 10.4701313,4.99843917 10.0777812,4.36460831 C9.68549891,3.7308457 8.85677462,3.53708605 8.22680306,3.93183976 C4.64518381,6.17628487 2.74407659,10.2201217 2.74407659,14.8716499 L2.74407659,18.9275668 C2.74407659,19.6742136 3.34569365,20.2795163 4.08786214,20.2795163 C4.83003063,20.2795163 5.4316477,19.6742136 5.4316477,18.9275668 L5.4316477,14.8715816 L5.43157987,14.8715816 Z" id="Shape"></path>
                <path d="M12.146709,2.70389911 L18.8722845,2.70389911 C19.6095689,2.70389911 20.2125427,3.312273 20.2125427,4.05584866 L20.2125427,4.73192582 C20.2125427,5.47809496 19.6108578,6.08387537 18.8722845,6.08387537 L12.146709,6.08387537 C11.4094245,6.08387537 10.8064508,5.47556973 10.8064508,4.73192582 L10.8064508,4.05584866 C10.8064508,3.30974777 11.4081357,2.70389911 12.146709,2.70389911 Z M8.11901532,4.73192582 C8.11901532,6.96715727 9.92345952,8.78777448 12.146709,8.78777448 L18.8722845,8.78777448 C21.0955339,8.78777448 22.8999781,6.97091098 22.8999781,4.73192582 L22.8999781,4.05584866 C22.8999781,1.82061721 21.0956018,0 18.8722845,0 L12.146709,0 C9.92339168,0 8.11901532,1.8168635 8.11901532,4.05584866 L8.11901532,4.73192582 Z" id="Shape"></path>
            </g>
            <g id="OtherIndustreies-Bucket" transform="translate(614.000000, 706.000000)" fill-rule="nonzero" fill="#000000">
                <path d="M28.120663,21.6313976 L25.72186,43.2627953 L5.29313129,43.2627953 L2.90579212,21.6313976 L28.120663,21.6313976 Z M0.0647811816,20.4287092 L2.75228446,44.7640059 C2.8278512,45.4486825 3.40308096,45.9666261 4.08779431,45.9666261 L26.9311991,45.9666261 C27.6159125,45.9666261 28.1910744,45.4486825 28.266709,44.7640059 L30.9542123,20.4287092 C31.0426674,19.6278724 30.419547,18.9274303 29.6187024,18.9274303 L1.40035886,18.9274303 C0.599446389,18.9274985 -0.0236061269,19.6278724 0.0647811816,20.4287092 Z" id="Shape"></path>
                <path d="M25.5874136,14.8715816 L25.5874136,18.9274985 C25.5874136,19.6741454 26.1890306,20.2794481 26.9311991,20.2794481 C27.6733676,20.2794481 28.2749847,19.6741454 28.2749847,18.9274985 L28.2749847,14.8715816 C28.2749847,10.2200534 26.3738775,6.17621662 22.7922582,3.93177151 C22.1622867,3.5370178 21.3335624,3.7308457 20.9412123,4.36460831 C20.54893,4.99843917 20.7415098,5.83217211 21.3714136,6.22692582 C24.1030088,7.93875371 25.5874136,11.0961691 25.5874136,14.8715816 Z" id="Shape"></path>
                <path d="M5.43157987,14.8715816 C5.43157987,11.0962374 6.91598468,7.93875371 9.6476477,6.22692582 C10.2775514,5.83217211 10.4701313,4.99843917 10.0777812,4.36460831 C9.68549891,3.7308457 8.85677462,3.53708605 8.22680306,3.93183976 C4.64518381,6.17628487 2.74407659,10.2201217 2.74407659,14.8716499 L2.74407659,18.9275668 C2.74407659,19.6742136 3.34569365,20.2795163 4.08786214,20.2795163 C4.83003063,20.2795163 5.4316477,19.6742136 5.4316477,18.9275668 L5.4316477,14.8715816 L5.43157987,14.8715816 Z" id="Shape"></path>
                <path d="M12.146709,2.70389911 L18.8722845,2.70389911 C19.6095689,2.70389911 20.2125427,3.312273 20.2125427,4.05584866 L20.2125427,4.73192582 C20.2125427,5.47809496 19.6108578,6.08387537 18.8722845,6.08387537 L12.146709,6.08387537 C11.4094245,6.08387537 10.8064508,5.47556973 10.8064508,4.73192582 L10.8064508,4.05584866 C10.8064508,3.30974777 11.4081357,2.70389911 12.146709,2.70389911 Z M8.11901532,4.73192582 C8.11901532,6.96715727 9.92345952,8.78777448 12.146709,8.78777448 L18.8722845,8.78777448 C21.0955339,8.78777448 22.8999781,6.97091098 22.8999781,4.73192582 L22.8999781,4.05584866 C22.8999781,1.82061721 21.0956018,0 18.8722845,0 L12.146709,0 C9.92339168,0 8.11901532,1.8168635 8.11901532,4.05584866 L8.11901532,4.73192582 Z" id="Shape"></path>
            </g>
            <g id="Watersuppy-bucket" transform="translate(579.000000, 426.000000)" fill-rule="nonzero" fill="#000000">
                <path d="M28.120663,21.6313976 L25.72186,43.2627953 L5.29313129,43.2627953 L2.90579212,21.6313976 L28.120663,21.6313976 Z M0.0647811816,20.4287092 L2.75228446,44.7640059 C2.8278512,45.4486825 3.40308096,45.9666261 4.08779431,45.9666261 L26.9311991,45.9666261 C27.6159125,45.9666261 28.1910744,45.4486825 28.266709,44.7640059 L30.9542123,20.4287092 C31.0426674,19.6278724 30.419547,18.9274303 29.6187024,18.9274303 L1.40035886,18.9274303 C0.599446389,18.9274985 -0.0236061269,19.6278724 0.0647811816,20.4287092 Z" id="Shape"></path>
                <path d="M25.5874136,14.8715816 L25.5874136,18.9274985 C25.5874136,19.6741454 26.1890306,20.2794481 26.9311991,20.2794481 C27.6733676,20.2794481 28.2749847,19.6741454 28.2749847,18.9274985 L28.2749847,14.8715816 C28.2749847,10.2200534 26.3738775,6.17621662 22.7922582,3.93177151 C22.1622867,3.5370178 21.3335624,3.7308457 20.9412123,4.36460831 C20.54893,4.99843917 20.7415098,5.83217211 21.3714136,6.22692582 C24.1030088,7.93875371 25.5874136,11.0961691 25.5874136,14.8715816 Z" id="Shape"></path>
                <path d="M5.43157987,14.8715816 C5.43157987,11.0962374 6.91598468,7.93875371 9.6476477,6.22692582 C10.2775514,5.83217211 10.4701313,4.99843917 10.0777812,4.36460831 C9.68549891,3.7308457 8.85677462,3.53708605 8.22680306,3.93183976 C4.64518381,6.17628487 2.74407659,10.2201217 2.74407659,14.8716499 L2.74407659,18.9275668 C2.74407659,19.6742136 3.34569365,20.2795163 4.08786214,20.2795163 C4.83003063,20.2795163 5.4316477,19.6742136 5.4316477,18.9275668 L5.4316477,14.8715816 L5.43157987,14.8715816 Z" id="Shape"></path>
                <path d="M12.146709,2.70389911 L18.8722845,2.70389911 C19.6095689,2.70389911 20.2125427,3.312273 20.2125427,4.05584866 L20.2125427,4.73192582 C20.2125427,5.47809496 19.6108578,6.08387537 18.8722845,6.08387537 L12.146709,6.08387537 C11.4094245,6.08387537 10.8064508,5.47556973 10.8064508,4.73192582 L10.8064508,4.05584866 C10.8064508,3.30974777 11.4081357,2.70389911 12.146709,2.70389911 Z M8.11901532,4.73192582 C8.11901532,6.96715727 9.92345952,8.78777448 12.146709,8.78777448 L18.8722845,8.78777448 C21.0955339,8.78777448 22.8999781,6.97091098 22.8999781,4.73192582 L22.8999781,4.05584866 C22.8999781,1.82061721 21.0956018,0 18.8722845,0 L12.146709,0 C9.92339168,0 8.11901532,1.8168635 8.11901532,4.05584866 L8.11901532,4.73192582 Z" id="Shape"></path>
            </g>
            <g id="water-supplybucket" transform="translate(611.000000, 426.000000)" fill-rule="nonzero" fill="#000000">
                <path d="M28.120663,21.6313976 L25.72186,43.2627953 L5.29313129,43.2627953 L2.90579212,21.6313976 L28.120663,21.6313976 Z M0.0647811816,20.4287092 L2.75228446,44.7640059 C2.8278512,45.4486825 3.40308096,45.9666261 4.08779431,45.9666261 L26.9311991,45.9666261 C27.6159125,45.9666261 28.1910744,45.4486825 28.266709,44.7640059 L30.9542123,20.4287092 C31.0426674,19.6278724 30.419547,18.9274303 29.6187024,18.9274303 L1.40035886,18.9274303 C0.599446389,18.9274985 -0.0236061269,19.6278724 0.0647811816,20.4287092 Z" id="Shape"></path>
                <path d="M25.5874136,14.8715816 L25.5874136,18.9274985 C25.5874136,19.6741454 26.1890306,20.2794481 26.9311991,20.2794481 C27.6733676,20.2794481 28.2749847,19.6741454 28.2749847,18.9274985 L28.2749847,14.8715816 C28.2749847,10.2200534 26.3738775,6.17621662 22.7922582,3.93177151 C22.1622867,3.5370178 21.3335624,3.7308457 20.9412123,4.36460831 C20.54893,4.99843917 20.7415098,5.83217211 21.3714136,6.22692582 C24.1030088,7.93875371 25.5874136,11.0961691 25.5874136,14.8715816 Z" id="Shape"></path>
                <path d="M5.43157987,14.8715816 C5.43157987,11.0962374 6.91598468,7.93875371 9.6476477,6.22692582 C10.2775514,5.83217211 10.4701313,4.99843917 10.0777812,4.36460831 C9.68549891,3.7308457 8.85677462,3.53708605 8.22680306,3.93183976 C4.64518381,6.17628487 2.74407659,10.2201217 2.74407659,14.8716499 L2.74407659,18.9275668 C2.74407659,19.6742136 3.34569365,20.2795163 4.08786214,20.2795163 C4.83003063,20.2795163 5.4316477,19.6742136 5.4316477,18.9275668 L5.4316477,14.8715816 L5.43157987,14.8715816 Z" id="Shape"></path>
                <path d="M12.146709,2.70389911 L18.8722845,2.70389911 C19.6095689,2.70389911 20.2125427,3.312273 20.2125427,4.05584866 L20.2125427,4.73192582 C20.2125427,5.47809496 19.6108578,6.08387537 18.8722845,6.08387537 L12.146709,6.08387537 C11.4094245,6.08387537 10.8064508,5.47556973 10.8064508,4.73192582 L10.8064508,4.05584866 C10.8064508,3.30974777 11.4081357,2.70389911 12.146709,2.70389911 Z M8.11901532,4.73192582 C8.11901532,6.96715727 9.92345952,8.78777448 12.146709,8.78777448 L18.8722845,8.78777448 C21.0955339,8.78777448 22.8999781,6.97091098 22.8999781,4.73192582 L22.8999781,4.05584866 C22.8999781,1.82061721 21.0956018,0 18.8722845,0 L12.146709,0 C9.92339168,0 8.11901532,1.8168635 8.11901532,4.05584866 L8.11901532,4.73192582 Z" id="Shape"></path>
            </g>
            <g id="mining-bucket-semi" transform="translate(333.000000, 565.000000)" fill-rule="nonzero" fill="#000000">
                <path d="M26.2355814,0.764041432 L25.0262422,6.21042729 L4.59751358,6.21042729 L3.3921766,0.764041432 L26.2355814,0.764041432 Z M0.400358862,1.32410415 L1.75228446,7.76400593 C1.8278512,8.44868249 2.40308096,8.96662611 3.08779431,8.96662611 L25.9311991,8.96662611 C26.6159125,8.96662611 27.1910744,8.44868249 27.266709,7.76400593 L28.4078926,1.32410415 C28.4963477,0.523267352 26.7320438,0.816409399 25.9311991,0.816409399 L1.75228446,0.816409399 C0.951371991,0.816477648 0.311971554,0.523267352 0.400358862,1.32410415 Z" id="Shape"></path>
            </g>
            <g id="housingbucket-semi" transform="translate(941.000000, 583.000000)" fill-rule="nonzero" fill="#000000">
                <path d="M26.2355814,0.764041432 L25.0262422,6.21042729 L4.59751358,6.21042729 L3.3921766,0.764041432 L26.2355814,0.764041432 Z M0.400358862,1.32410415 L1.75228446,7.76400593 C1.8278512,8.44868249 2.40308096,8.96662611 3.08779431,8.96662611 L25.9311991,8.96662611 C26.6159125,8.96662611 27.1910744,8.44868249 27.266709,7.76400593 L28.4078926,1.32410415 C28.4963477,0.523267352 26.7320438,0.816409399 25.9311991,0.816409399 L1.75228446,0.816409399 C0.951371991,0.816477648 0.311971554,0.523267352 0.400358862,1.32410415 Z" id="Shape"></path>
            </g>
            <text id="AGRICULTURE" font-family="AvenirNext-Regular, Avenir Next" font-size="24" font-weight="normal" fill="#6C6C6C">
                <tspan x="284" y="199">AGRICULTURE</tspan>
            </text>
            <text id="MINING" font-family="AvenirNext-Regular, Avenir Next" font-size="24" font-weight="normal" fill="#6C6C6C">
                <tspan x="335" y="520">MINING</tspan>
            </text>
            <text id="MANUFACTURING" font-family="AvenirNext-Regular, Avenir Next" font-size="24" font-weight="normal" fill="#6C6C6C">
                <tspan x="785" y="260">MANUFACTURING</tspan>
            </text>
            <text id="WATER-SUPPLY" font-family="AvenirNext-Regular, Avenir Next" font-size="24" font-weight="normal" fill="#6C6C6C">
                <tspan x="579" y="397">WATER SUPPLY</tspan>
            </text>
            <text id="HOUSING" font-family="AvenirNext-Regular, Avenir Next" font-size="24" font-weight="normal" fill="#6C6C6C">
                <tspan x="902" y="538">HOUSING</tspan>
            </text>
            <text id="OTHER-INDUSTRIES" font-family="AvenirNext-Regular, Avenir Next" font-size="24" font-weight="normal" fill="#6C6C6C">
                <tspan x="570" y="684">OTHER INDUSTRIES</tspan>
            </text>
            <g id="Water-Supply-Symbol" transform="translate(706.000000, 419.000000)" fill-rule="nonzero" fill="#000000">
                <path d="M10.1509412,29.8798804 L10.1509412,37.3068043 L0,37.3068043 L0,29.8798804 L10.1509412,29.8798804 L10.1509412,29.8798804 Z M29.0474622,41.9778587 L15.8859076,41.9778587 C13.672437,41.9778587 11.8622269,40.1564891 11.8622269,37.9299565 L11.8622269,29.2568804 C11.8622269,27.0300435 13.6725126,25.2089783 15.8859076,25.2089783 L17.8786134,25.2089783 L17.8786134,21.3488587 C14.0153445,19.7503478 11.3692689,16.0876739 11.3692689,11.2040326 C11.3692689,5.03870652 16.3383277,0.0398695652 22.4667227,0.0398695652 C28.5952689,0.0398695652 33.5638739,5.03870652 33.5638739,11.2040326 C33.5638739,15.6383043 31.3891261,19.1118261 28.0295546,20.901163 L28.0295546,25.2086739 L29.0471597,25.2086739 C31.2607059,25.2086739 33.0708403,27.0300435 33.0708403,29.2565761 L33.0708403,37.9296522 C33.0710672,40.1564891 31.2606303,41.9778587 29.0474622,41.9778587 L29.0474622,41.9778587 Z M23.2320252,12.2219239 C24.4182857,11.3859565 23.682479,9.51345652 22.2621429,9.69241304 L17.8144034,4.40969565 L21.2011261,10.4400435 C20.5483613,11.7215 22.0458403,13.057663 23.2320252,12.2219239 L23.2320252,12.2219239 Z M13.6587479,11.2039565 C13.6587479,16.5549239 17.5099916,19.9302935 22.4667227,19.9302935 C27.5238151,19.9302935 31.2746218,16.4722935 31.2746218,11.2039565 C31.2746218,6.30981522 27.3317143,2.34309783 22.4669496,2.34309783 C17.6021849,2.34286957 13.6587479,6.30981522 13.6587479,11.2039565 L13.6587479,11.2039565 Z M44.9332941,29.8798804 L44.9332941,37.3068043 L34.7824286,37.3068043 L34.7824286,29.8798804 L44.9332941,29.8798804 L44.9332941,29.8798804 Z" id="Shape"></path>
            </g>
            <g id="Housing-symbol" transform="translate(1014.000000, 548.000000)" fill-rule="nonzero" fill="#000000">
                <g id="Group" transform="translate(0.074468, 6.715966)">
                    <path d="M26.2857447,0.0365647059 C25.7378085,0.0365647059 25.291,0.481609412 25.291,1.03336336 L25.291,4.67162622 C25.291,5.22427563 25.7378085,5.66939496 26.2857447,5.66939496 C26.8371809,5.66939496 27.281383,5.22427563 27.281383,4.67162622 L27.281383,1.03425882 C27.2804894,0.481684034 26.8371809,0.0365647059 26.2857447,0.0365647059 Z" id="Shape"></path>
                    <path d="M21.9161064,15.898558 L2.49043617,15.898558 C1.13764894,15.898558 0.0408085106,16.9967677 0.0408085106,18.3522736 L0.0408085106,21.3039408 C0.0408085106,22.8207792 1.21234043,23.7726555 1.93453191,24.221282 L9.87067021,28.6580733 C10.1724149,28.8264948 10.3746702,29.2944484 10.2084574,29.5941297 C10.0922872,29.8047126 10.0008404,29.9061237 9.74139362,29.9581351 L9.48894681,29.9581351 C9.3905,29.9581351 9.28929787,29.9290326 9.19695745,29.8761257 L5.08594681,27.5774743 L5.08594681,37.622396 L19.3988617,37.622396 L19.3988617,25.9223617 L21.9143191,24.5253661 C21.9143191,24.5253661 24.364766,23.4174555 24.364766,21.3039408 L24.364766,18.3522736 C24.3665532,16.9966931 23.2671809,15.898558 21.9161064,15.898558 Z" id="Shape"></path>
                </g>
                <g id="Group" transform="translate(0.000000, 4.999664)">
                    <path d="M2.0423617,6.26726521 C2.0423617,4.34851361 2.60705319,2.10276908 3.64409574,0.048354958 L3.12691489,0.048354958 C1.40737234,0.048354958 0.0141489362,1.38804101 0.0141489362,3.04143731 L0.0141489362,13.477676 C0.0141489362,15.1311469 1.40737234,16.4708329 3.12691489,16.4708329 L11.2223404,16.4708329 C6.0725,15.9384807 2.0423617,11.5660134 2.0423617,6.26726521 Z" id="Shape"></path>
                    <path d="M21.3291489,0.0482803361 L20.9166702,0.0482803361 C21.9518511,2.10276908 22.5183298,4.34843899 22.5183298,6.26719059 C22.5183298,11.5659388 18.4891596,15.9384061 13.3393191,16.4707583 L21.3282553,16.4707583 C23.0460106,16.4707583 24.4401277,15.1310723 24.4401277,13.4776013 L24.4401277,3.04143731 C24.4410213,1.38796639 23.0469787,0.0482803361 21.3291489,0.0482803361 Z" id="Shape"></path>
                </g>
                <path d="M12.2812021,0.00216403361 C6.87459574,0.00216403361 3.28605319,6.78163361 3.28605319,11.2669291 C3.28605319,16.2360726 7.32058511,20.2789351 12.2812021,20.2789351 C17.2392128,20.2789351 21.2746383,16.2360726 21.2746383,11.2669291 C21.2737447,6.78252908 17.6860213,0.00216403361 12.2812021,0.00216403361 Z M12.2812021,16.1214534 C9.61003191,16.1214534 7.43660638,13.9436148 7.43660638,11.2669291 C7.43660638,8.33197714 9.9416383,4.16136202 12.2812021,4.16136202 C14.6191277,4.16136202 17.1240106,8.33197714 17.1240106,11.2669291 C17.1240106,13.9436148 14.9506596,16.1214534 12.2812021,16.1214534 Z" id="Shape"></path>
            </g>
            <g id="Manufacturing-symbol" transform="translate(995.000000, 214.000000)" fill-rule="nonzero" fill="#000000">
                <path d="M6.48736413,43.0478924 L6.48736413,44.3108118 C7.88845109,44.5924739 9.27038043,45.8613832 9.27038043,47.6808202 L9.2767663,58.7045798 L12.065625,58.7045798 L12.065625,47.7262891 C12.065625,46.162921 13.3577446,44.5668807 14.8480978,44.3172101 L14.8480978,42.6638571 L6.94252717,42.6574588 C6.60339674,42.6574588 6.48736413,42.7528891 6.48736413,43.0478924 L6.48736413,43.0478924 Z M55.3959239,53.9138723 C54.9460598,53.9138723 54.496875,53.9138723 54.0475543,53.9138723 C54.0169837,52.2861126 55.034375,49.567916 56.565625,48.5209059 C56.3934783,44.2294034 60.20625,42.9624 62.1290761,45.3846403 C62.8225543,46.3230151 63.9544837,45.9849933 64.6054348,45.4695882 C65.5211957,44.3004655 67.1921196,44.409237 68.4,45.7003361 C69.1610054,46.5383798 69.5381793,46.4326034 70.0732337,46.1648269 C71.257337,45.5723697 72.0538043,45.642479 73.2744565,46.2157412 C75.4779891,47.2499546 75.5119565,49.5970487 73.6230978,50.7396252 C72.3836957,51.4897261 70.7675272,51.7035933 69.5154891,50.9421933 C69.0494565,50.6590336 68.8334239,50.1590118 68.0502717,50.9747294 C66.8819293,51.9841664 64.8949728,52.0371227 63.9559783,50.7419395 C63.3433424,49.7482941 62.6904891,49.6751899 61.9669837,50.5813008 C60.7211957,52.2094689 58.8313859,52.0785076 57.4721467,50.7913563 C56.3616848,50.792037 55.6173913,52.3187849 55.3959239,53.9138723 L55.3959239,53.9138723 Z M30.3023098,19.2191899 C29.4165761,19.2191899 28.5308424,19.2191899 27.6441576,19.2191899 C27.5849185,16.0113176 29.5896739,10.6529294 32.6080163,8.58885882 C32.2697011,0.130689076 39.7845109,-2.36751429 43.5751359,2.40726555 C44.9422554,4.25774118 47.1728261,3.59122689 48.4555707,2.57471092 C50.2605978,0.271043697 53.5535326,0.484502521 55.9351902,3.0298084 C57.4353261,4.68166387 58.1790761,4.47269748 59.2328804,3.94544874 C61.5665761,2.77687059 63.1362772,2.91613613 65.5430707,4.04523529 C69.886413,6.08357647 69.9529891,10.7096975 66.2309783,12.9619059 C63.7877717,14.4403261 60.6023098,14.8623429 58.1334239,13.3611882 C57.2146739,12.8027647 56.789538,11.8175597 55.2459239,13.4254437 C52.9438859,15.4158655 49.0266304,15.5201445 47.1756793,12.9673513 C45.9683424,11.0101462 44.6817935,10.8648908 43.2563859,12.6505664 C40.8004076,15.8595277 37.076087,15.6020975 34.3960598,13.0656403 C32.2069293,13.0661849 30.7388587,16.075437 30.3023098,19.2191899 L30.3023098,19.2191899 Z M37.0164402,72.0644067 L42.0807065,72.0644067 L42.0807065,77.1396353 L37.0164402,77.1396353 L37.0164402,72.0644067 L37.0164402,72.0644067 Z M12.0904891,72.0644067 L17.1547554,72.0644067 L17.1547554,77.1396353 L12.0904891,77.1396353 L12.0904891,72.0644067 L12.0904891,72.0644067 Z M20.6567935,72.0644067 L25.7216033,72.0644067 L25.7216033,77.1396353 L20.6567935,77.1396353 L20.6567935,72.0644067 L20.6567935,72.0644067 Z M29.0313859,72.0644067 L34.0956522,72.0644067 L34.0956522,77.1396353 L29.0313859,77.1396353 L29.0313859,72.0644067 L29.0313859,72.0644067 Z M45.6404891,72.0644067 L50.7052989,72.0644067 L50.7052989,77.1396353 L45.6404891,77.1396353 L45.6404891,72.0644067 L45.6404891,72.0644067 Z M62.7658967,80.8876891 L0.0293478261,80.8876891 L0.0293478261,58.7040353 L2.234375,58.7040353 L2.234375,47.7392218 C2.234375,45.9770975 3.5330163,44.6241933 5.0232337,44.3108118 L5.0232337,42.6574588 C5.0232337,41.7344672 5.63084239,41.2600387 6.49429348,41.2600387 L25.709375,41.3934504 L26.8831522,20.4712185 L31.1737772,20.4712185 L32.5669837,41.265484 L40.8991848,41.2669815 C41.8903533,41.2669815 42.3697011,41.7160891 42.3697011,42.6386723 L42.3633152,49.0086756 L49.9472826,48.9932924 L49.9566576,60.4714689 L53.6055707,60.4714689 L53.9701087,54.6500874 C54.5608696,54.6500874 55.1516304,54.6500874 55.7419837,54.6500874 L56.073913,60.4714689 L59.4086957,60.4714689 L59.7740489,54.6500874 C60.3644022,54.6500874 60.955163,54.6500874 61.5460598,54.6500874 L61.8774457,60.4714689 L62.7650815,60.4714689 L62.7650815,80.8876891 L62.7658967,80.8876891 L62.7658967,80.8876891 Z M33.0793478,48.9745059 L40.8995924,49.0075866 L40.8995924,43.0478924 C40.8995924,42.7978134 40.8163043,42.6506521 40.5095109,42.6506521 L32.6258152,42.6521496 L33.0793478,48.9745059 L33.0793478,48.9745059 Z M25.645788,42.7839277 L16.3316576,42.6574588 L16.3316576,44.3295983 C17.7835598,44.5795412 19.1072011,46.0220218 19.1072011,47.7578723 L19.1072011,58.7038992 L25.0046196,54.1760672 L25.645788,42.7839277 Z" id="Shape"></path>
            </g>
            <g id="Mining-Symbol" transform="translate(398.000000, 512.000000)" fill-rule="nonzero" fill="#000000">
                <g id="Group" transform="translate(34.500000, 33.500000) scale(-1, 1) rotate(-180.000000) translate(-34.500000, -33.500000) ">
                    <g id="Shape">
                        <g>
                            <path d="M0.0255114943,0.115870588 L0.0255114943,2.76907059 L1.22137931,5.0288098 C0.870563218,6.35593529 1.22547701,7.8351902 2.16979885,9.44003725 L0.627212644,9.4187549 L1.37312644,10.4885216 L1.1722069,11.4668529 L1.80417816,11.8789686 L2.61486207,13.2939824 L3.54186782,11.7209275 C3.64351724,11.8031667 3.74424138,11.8822529 3.84351149,11.9588431 C3.28781034,12.7531216 2.91637356,13.6639275 3.22462644,14.477649 C3.98613793,16.4913275 6.26062644,17.8558941 9.03754598,17.3524745 L10.4973851,17.5390235 C9.71948276,18.1483294 9.16298851,19.040349 8.99736207,20.0879137 L8.88844253,20.7885235 C8.54251724,22.9919039 10.0613103,25.0603647 12.278431,25.4032471 C14.2717644,25.8659412 16.7446609,26.3563549 19.4380402,26.8402 L19.2126667,28.2804373 L10.0835172,26.8654235 L8.37702299,37.7446471 L8.4065,37.7487196 L8.09348851,39.7445314 L15.558046,40.8711824 C16.4358793,41.0071529 17.2571379,40.4108529 17.3940805,39.5376196 L17.4515805,39.1498078 L21.8850287,39.8382 L21.9063103,39.8169176 L30.5781034,36.085149 L41.195908,36.2822078 L41.6753391,33.217549 C41.7984023,32.4331235 41.2573736,31.6950725 40.4671782,31.5744725 L31.1583908,30.130951 L31.3796667,28.7240824 C34.9081839,29.2104235 38.2114598,29.6006 40.7762241,29.8172333 C42.9932126,30.1626118 45.0736552,28.6523529 45.4194483,26.4488412 L45.5292931,25.7474431 C45.5645862,25.5193804 45.580977,25.2936824 45.5784655,25.0696922 L51.2455862,28.9497804 L52.2750345,27.3042078 L50.1693448,22.0783392 L63.5722644,17.5873686 L62.5707069,14.0656647 C64.6804943,13.2608765 66.1641264,11.3595216 66.1641264,9.14208431 C66.1641264,8.50006667 66.0378908,7.88353529 65.8107989,7.31324706 L67.3886782,7.00859412 L68.876408,2.52747647 L68.876408,0.115345098 L0.0255114943,0.115345098 L0.0255114943,0.115870588 Z M12.8759023,18.5392941 L15.717592,23.7521569 L25.0451494,20.3729922 L28.7556839,20.9473529 L31.5072241,24.0045235 L34.6087874,24.4786471 L36.1594368,23.4807412 C37.0062069,23.9158471 37.981592,24.1633529 39.0216149,24.1633529 C39.9568161,24.1633529 40.8413908,23.9622216 41.6265632,23.6037059 L43.2288966,23.7788255 C43.5927989,24.2366588 43.7715115,24.8386078 43.6747529,25.4602627 L43.5641149,26.1616608 C43.3789253,27.3476922 42.2584023,28.1615451 41.0642529,27.9765725 L41.001069,27.966851 L40.9362989,27.9618588 C33.5464253,27.3321902 19.9123161,25.2574235 12.7026092,23.5874157 L12.6345345,23.5703373 L12.5664598,23.5604843 C11.3738966,23.3756431 10.5542241,22.2629176 10.7419253,21.0767549 L10.8508448,20.3745686 C11.0121092,19.3498627 11.8734195,18.601302 12.8759023,18.5392941 Z M57.8772529,21.5127804 C55.7953563,21.7286255 53.8018908,22.5586373 51.7838391,23.2689686 L52.0823103,24.3801176 C53.4044138,24.1838471 54.725592,23.9564412 56.0747931,24.3434647 L59.1378908,34.8668 L58.2214598,35.4939725 L54.0026782,51.7400275 L44.0176379,42.9966588 C42.762023,42.0427627 41.6652931,40.5732294 40.6881897,38.7118118 L40.6505172,38.7191686 C39.7816724,41.0725765 38.4357759,44.5233392 37.0834023,47.1626137 C37.169454,47.2254098 37.256431,47.2872863 37.3449943,47.3508706 L52.4002126,57.9058667 L51.7576667,60.3839471 L56.231431,66.636098 C56.710069,67.0353392 57.2723793,67.1786667 58.164092,66.2614235 L62.2911379,58.8964157 L63.3435862,35.8141275 L63.2254138,35.5632059 C71.9285345,31.8738706 67.6122011,20.5025255 57.8772529,21.5127804 Z M4.88274138,27.5865275 L4.58202299,29.5024647 C4.5810977,29.5032529 4.5810977,29.5040412 4.5810977,29.505749 L3.32138506,37.5386549 C3.19752874,38.324 3.73935057,39.0612627 4.52875287,39.1834392 L6.78433908,39.532102 L7.08598276,37.6128804 L8.79327011,26.7352333 L6.5368908,26.3857824 C5.74577011,26.2628176 5.00554023,26.8011824 4.88274138,27.5865275 Z M28.0247069,38.3565804 L21.7076379,41.0749412 C21.5576092,43.8691039 21.5388391,45.8282627 21.3872241,48.6257098 L25.5756034,50.1328157 L34.2859943,51.4818804 C34.6522759,50.9491647 34.9991264,50.4188137 35.3277356,49.8901706 L26.4755115,48.4408686 L28.0247069,38.3565804 Z"></path>
                        </g>
                    </g>
                </g>
            </g>
            <g id="OtherIndustries-Symbol" transform="translate(682.000000, 693.000000)" fill-rule="nonzero" fill="#000000">
                <path d="M7.38685906,44.3801139 L1.47741946,44.3801139 C0.661872483,44.3801139 0,45.0409966 0,45.8550586 C0,46.6691206 0.661872483,47.3298844 1.47730034,47.3298844 L7.38673993,47.3298844 C8.20228691,47.3298844 8.8641594,46.6691206 8.8641594,45.8550586 C8.8641594,45.0409966 8.20240604,44.3801139 7.38685906,44.3801139 Z" id="Shape"></path>
                <path d="M69.4368087,44.353593 L51.7082517,44.353593 C50.8927047,44.353593 50.2309513,45.0143568 50.2309513,45.8284188 C50.2309513,46.6424807 50.8928238,47.3032446 51.7082517,47.3032446 L69.4368087,47.3032446 C70.2523557,47.3032446 70.9141091,46.6424807 70.9141091,45.8284188 C70.9141091,45.0143568 70.2523557,44.353593 69.4368087,44.353593 Z" id="Shape"></path>
                <path d="M4.49122651,56.152794 L4.46168289,56.152794 C4.45572651,56.152794 4.45274832,56.1557672 4.44691107,56.1557672 C4.4409547,56.1557672 4.43797651,56.152794 4.43213926,56.152794 C3.61659228,56.152794 2.9547198,56.8136767 2.9547198,57.6277387 C2.9547198,58.4418007 3.61671141,59.1025645 4.43213926,59.1025645 C4.44393289,59.1025645 4.44977013,59.0966181 4.46168289,59.0966181 C4.47347651,59.0966181 4.47931376,59.1025645 4.49122651,59.1025645 C5.30677349,59.1025645 5.96852685,58.4418007 5.96852685,57.6277387 C5.96852685,56.8136767 5.30677349,56.152794 4.49122651,56.152794 Z" id="Shape"></path>
                <path d="M22.2197836,67.925474 L22.1902399,67.925474 C21.7824664,67.925474 21.4161493,68.090665 21.1532349,68.3590854 C20.8666141,68.6275059 20.683396,69.0051022 20.683396,69.4269397 C20.683396,70.2411206 21.3452685,70.9017655 22.1606963,70.9017655 C22.3765554,70.9017655 22.5802634,70.8487236 22.7664597,70.7660687 C23.3100386,70.5478358 23.697203,70.0227688 23.697203,69.4004188 C23.697203,68.5862379 23.0352114,67.925474 22.2197836,67.925474 Z" id="Shape"></path>
                <path d="M31.0840621,67.9521139 L31.0545185,67.9521139 C31.0485621,67.9521139 31.045703,67.9549682 31.0397466,67.9549682 C31.0337903,67.9549682 31.0309312,67.9521139 31.0249748,67.9521139 C30.2094279,67.9521139 29.5476745,68.6128777 29.5476745,69.4269397 C29.5476745,70.2410017 30.209547,70.9017655 31.0249748,70.9017655 C31.0368876,70.9017655 31.0427248,70.895938 31.0545185,70.895938 C31.0664312,70.895938 31.0722685,70.9017655 31.0840621,70.9017655 C31.8996091,70.9017655 32.5614815,70.2410017 32.5614815,69.4269397 C32.5614815,68.6128777 31.8996091,67.9521139 31.0840621,67.9521139 Z" id="Shape"></path>
                <path d="M36.9935017,67.9521139 L36.9639581,67.9521139 C36.9581208,67.9521139 36.9551426,67.9549682 36.9491862,67.9549682 C36.9432299,67.9549682 36.9403708,67.9521139 36.9344144,67.9521139 C36.1188674,67.9521139 35.4571141,68.6128777 35.4571141,69.4269397 C35.4571141,70.2410017 36.1189866,70.9017655 36.9344144,70.9017655 C36.9463272,70.9017655 36.9521644,70.895938 36.9639581,70.895938 C36.9758708,70.895938 36.9817081,70.9017655 36.9935017,70.9017655 C37.8090487,70.9017655 38.4709211,70.2410017 38.4709211,69.4269397 C38.4709211,68.6128777 37.8090487,67.9521139 36.9935017,67.9521139 Z" id="Shape"></path>
                <path d="M57.6768977,56.152794 L57.647354,56.152794 C57.6413977,56.152794 57.6384195,56.1557672 57.6325822,56.1557672 C57.6266258,56.1557672 57.6237668,56.152794 57.6178104,56.152794 C56.8022634,56.152794 56.1403909,56.8136767 56.1403909,57.6277387 C56.1403909,58.4418007 56.8023826,59.1025645 57.6178104,59.1025645 C57.629604,59.1025645 57.6354413,59.0966181 57.647354,59.0966181 C57.6591477,59.0966181 57.6649849,59.1025645 57.6768977,59.1025645 C58.4924446,59.1025645 59.154198,58.4418007 59.154198,57.6277387 C59.154198,56.8136767 58.4924446,56.152794 57.6768977,56.152794 Z" id="Shape"></path>
                <path d="M51.7082517,56.152794 L45.0216242,56.152794 C47.087057,50.8136415 50.6800621,40.2857806 48.3782802,36.8551843 C47.7902668,35.9849883 46.8772735,35.5041625 45.7988121,35.5041625 C44.8886779,35.5041625 44.1914245,35.4097337 43.6153238,35.2534623 C43.7069329,35.194474 43.8073574,35.153206 43.890151,35.0705511 C47.2083289,31.7579313 52.5889614,22.6636281 49.988646,16.6577655 C49.0017936,14.3805327 46.4548473,11.7286767 39.845057,11.9056415 C36.4293138,12.035392 32.9191023,10.4986047 30.0973289,7.7640938 C27.6774916,5.41907203 26.5929547,2.97070184 26.5929547,1.58126633 C26.5929547,0.767085427 25.9310822,0.106440536 25.1156544,0.106440536 C24.3002265,0.106440536 23.638354,0.767204355 23.638354,1.58126633 C23.638354,4.07090452 25.3254379,7.25080067 28.0409497,9.88208208 C31.4329866,13.1681809 35.7823322,14.9438945 39.933807,14.8554121 C43.8695419,14.7286348 46.3691946,15.7344087 47.2764698,17.8288492 C49.0374128,21.8966616 45.1459933,29.6457705 41.7982718,32.9849112 C41.7008255,33.0821943 41.6447164,33.2002898 41.5796728,33.3152931 C41.4142047,32.6840235 41.3669111,31.9407236 41.3669111,31.0793283 C41.3669111,30.5807822 41.1157903,30.1147035 40.693245,29.8433099 C40.2706997,29.5719162 39.7447517,29.5306482 39.2868255,29.7312797 C16.4258977,39.875598 17.6698272,57.0317906 17.7318926,57.7573702 C17.7407081,57.8458526 17.7790671,57.9225611 17.8027735,58.0080704 C17.8235017,58.0877521 17.8352953,58.1702881 17.8707953,58.2440235 C17.9179698,58.3442797 17.9859916,58.4239615 18.0510352,58.5094707 C18.0982097,58.5714322 18.1308507,58.6362479 18.1869597,58.6894087 C18.2727315,58.7719447 18.3761342,58.8280787 18.482396,58.887067 C18.5386242,58.9194154 18.5857987,58.9667487 18.6478641,58.9902965 C18.8222668,59.0610586 19.008344,59.1023266 19.2063339,59.1023266 L28.0706124,59.1023266 L39.8896107,59.1023266 L42.8444497,59.1023266 L51.7086091,59.1023266 C52.524156,59.1023266 53.1860285,58.4415628 53.1860285,57.6275008 C53.1860285,56.8134389 52.5237987,56.152794 51.7082517,56.152794 Z M32.9455487,38.8669698 C33.5069966,38.3359564 34.4820554,38.3359564 35.0138406,38.896464 C35.3092768,39.1619112 35.4571141,39.5454539 35.4571141,39.9288777 C35.4571141,40.3123015 35.309396,40.6958442 35.0138406,40.9612915 C34.7480671,41.2562328 34.3638809,41.4037035 33.9796946,41.4037035 C33.5955084,41.4037035 33.2114413,41.2562328 32.9454295,40.9612915 C32.6501124,40.6958442 32.5022752,40.3123015 32.5022752,39.9288777 C32.5023943,39.5454539 32.6501124,39.1619112 32.9455487,38.8669698 Z M28.070255,44.353593 C28.885802,44.353593 29.5475554,45.0143568 29.5475554,45.8284188 C29.5475554,48.5747035 36.7246309,50.0171809 39.9955151,50.2559883 C40.8080839,50.3149765 41.4196846,51.0201005 41.3605973,51.8342814 C41.3044883,52.6099296 40.6575067,53.2030235 39.8891342,53.2030235 C39.8536342,53.2030235 39.8181342,53.2030235 39.7797752,53.2000503 C38.4323238,53.099794 26.5927164,52.0584606 26.5927164,45.8285377 C26.5928356,45.0143568 27.2547081,44.353593 28.070255,44.353593 Z" id="Shape"></path>
                <path d="M42.8440923,62.0525729 L22.1606963,62.0525729 C21.3451493,62.0525729 20.683396,62.7133367 20.683396,63.5273987 C20.683396,64.3414606 21.3452685,65.0022245 22.1606963,65.0022245 L42.8440923,65.0022245 C43.6596393,65.0022245 44.3213926,64.3414606 44.3213926,63.5273987 C44.3213926,62.7133367 43.6595201,62.0525729 42.8440923,62.0525729 Z" id="Shape"></path>
                <path d="M17.111,46.412593 C17.3089899,45.958407 17.2618154,45.43334 16.9898473,45.01733 C16.7150201,44.6014389 16.2511376,44.3537119 15.7547332,44.3537119 L13.2964178,44.3537119 C12.7852416,44.3537119 12.3094463,44.6191591 12.0405755,45.0527705 C11.8485419,45.3655511 7.35433725,52.7754774 12.1558909,58.5629883 C12.4423926,58.9081173 12.8620789,59.0968559 13.2934396,59.0968559 C13.4707013,59.0968559 13.6480822,59.0645075 13.8193876,58.9995729 C14.4103792,58.7753936 14.7945654,58.200139 14.7707399,57.5689883 C14.7235654,56.3269045 14.7619245,51.843201 17.111,46.412593 Z" id="Shape"></path>
                <path d="M48.8126191,62.0525729 L48.7830755,62.0525729 C48.7771191,62.0525729 48.7742601,62.0554271 48.7683037,62.0554271 C48.7623473,62.0554271 48.7594883,62.0525729 48.7535319,62.0525729 C47.9379849,62.0525729 47.2762315,62.7133367 47.2762315,63.5273987 C47.2762315,64.3414606 47.938104,65.0022245 48.7535319,65.0022245 C48.7653255,65.0022245 48.7711628,64.9962781 48.7830755,64.9962781 C48.7948691,64.9962781 48.8007064,65.0022245 48.8126191,65.0022245 C49.6281661,65.0022245 50.2899195,64.3414606 50.2899195,63.5273987 C50.2899195,62.7133367 49.6281661,62.0525729 48.8126191,62.0525729 Z" id="Shape"></path>
                <path d="M16.3102248,62.0525729 L16.2806812,62.0525729 C16.2747248,62.0525729 16.2718658,62.0554271 16.2659094,62.0554271 C16.259953,62.0554271 16.257094,62.0525729 16.2511376,62.0525729 C15.4355906,62.0525729 14.7738372,62.7133367 14.7738372,63.5273987 C14.7738372,64.3414606 15.4357097,65.0022245 16.2511376,65.0022245 C16.2630503,65.0022245 16.2688876,64.9962781 16.2806812,64.9962781 C16.292594,64.9962781 16.2984312,65.0022245 16.3102248,65.0022245 C17.1257718,65.0022245 17.7875252,64.3414606 17.7875252,63.5273987 C17.7875252,62.7133367 17.1257718,62.0525729 16.3102248,62.0525729 Z" id="Shape"></path>
            </g>
        </g>
    </g>
</svg>